# Blender 4.2.1 LTS
# www.blender.org
mtllib Sifónido.mtl
o Box001
v 0.000000 1.795444 1.742283
v 0.000000 1.820140 1.819765
v -0.113993 1.830956 1.816165
v -0.116212 1.806261 1.739706
v 0.000000 2.353876 1.803570
v 0.000000 2.340843 1.646415
v -0.110108 2.318636 1.645991
v -0.107082 2.331669 1.799970
v 0.000000 2.322366 1.282712
v -0.112490 2.305581 1.287869
v -0.191326 2.272808 1.644806
v 0.000000 2.217536 1.185037
v 0.000000 2.087880 1.174920
v -0.121337 2.087880 1.191711
v -0.117493 2.214266 1.198856
v 0.000000 1.967341 1.181452
v -0.121484 1.969312 1.197689
v -0.117294 1.823713 1.205809
v 0.000000 1.813856 1.193318
v 0.000000 1.626951 1.191401
v -0.113158 1.638779 1.205208
v -0.114394 1.648140 1.712454
v 0.000000 1.637325 1.722713
v -0.235045 1.870612 1.698586
v -0.215822 1.678033 1.640052
v -0.210883 1.673435 1.293558
v -0.204718 1.463136 1.273550
v -0.112339 1.431963 1.183383
v 0.000000 1.420134 1.168970
v -0.113802 1.441324 1.689893
v 0.000000 1.430507 1.700282
v -0.210568 1.467733 1.617103
v -0.208119 1.232418 1.256454
v -0.112340 1.201245 1.166286
v 0.000000 1.189417 1.151874
v -0.112806 1.210606 1.673303
v 0.000000 1.199789 1.683186
v -0.209983 1.237016 1.602030
v -0.219663 0.983849 1.251171
v -0.113159 0.956752 1.160867
v 0.000000 0.945943 1.146794
v -0.112376 0.961017 1.681328
v 0.000000 0.950201 1.691212
v -0.216531 0.987427 1.609029
v 0.000000 0.767478 1.114411
v -0.116437 0.773634 1.127590
v -0.117010 0.699489 1.714085
v 0.000000 0.687788 1.723695
v -0.240746 0.735059 1.638453
v 0.000000 0.028967 0.732264
v -0.127441 0.038525 0.734880
v -0.122823 0.036524 0.439268
v 0.000000 0.027148 0.437241
v -0.117503 0.092596 0.120115
v 0.000000 0.082653 0.117124
v -0.123656 0.604310 0.003279
v 0.000000 0.627265 -0.001164
v 0.000000 0.622195 -0.299184
v -0.113512 0.599121 -0.294992
v -0.108197 0.082639 -0.177948
v 0.000000 0.070149 -0.180897
v 0.000000 1.850513 1.919814
v -0.111522 1.862915 1.906852
v -0.209655 1.877114 1.807330
v -0.189217 1.892104 1.878767
v 0.000000 1.960637 1.960040
v 0.000000 2.080215 1.939519
v -0.146070 2.080007 1.950404
v -0.105705 1.984126 1.957067
v 0.000000 2.205526 1.964778
v -0.105705 2.178983 1.959805
v 0.000000 2.356277 1.945252
v -0.109181 2.333258 1.930002
v -0.178233 2.282275 1.792208
v -0.174305 2.296219 1.897306
v -0.232198 1.867280 1.290302
v -0.128230 0.649698 0.596567
v 0.000000 0.674287 0.591963
v 0.000000 0.701193 0.318953
v -0.127205 0.676160 0.321692
v 0.000000 0.457937 -0.593763
v -0.088234 0.439816 -0.592022
v -0.083823 0.085857 -0.480989
v 0.000000 0.075104 -0.482943
v -0.245028 1.994918 1.293746
v -0.279466 1.999806 1.681825
v -0.261082 1.972062 1.811276
v -0.225770 1.971896 1.898831
v -0.240631 2.102332 1.289258
v -0.282676 2.106136 1.663051
v -0.269085 2.088153 1.808238
v -0.237730 2.084901 1.899818
v -0.215575 2.218799 1.284316
v -0.248553 2.214587 1.648958
v -0.239051 2.208329 1.802071
v -0.208865 2.213324 1.908529
v -0.185591 2.281491 1.317563
v 0.000000 0.225417 -1.128840
v -0.018483 0.224208 -1.142031
v 0.000000 0.225616 -1.172555
v -0.019870 0.224877 -1.177769
v -0.031531 0.215440 -1.156508
v -0.031638 0.215378 -1.180946
v 0.000000 1.920503 1.980323
v -0.126151 1.958808 1.961210
v 0.000000 2.263330 2.000870
v -0.123799 2.213946 1.969981
v -0.186923 2.080889 1.958404
v -0.238454 0.779291 1.221872
v -0.254291 0.655448 1.190164
v -0.117257 0.680813 1.084503
v 0.000000 0.679456 1.070119
v -0.126181 0.340470 1.717409
v 0.000000 0.325144 1.725414
v -0.289987 0.416068 1.646685
v -0.266430 0.549079 1.103132
v -0.119411 0.615756 1.012129
v 0.000000 0.623521 0.999389
v -0.132693 0.112901 1.539803
v 0.000000 0.097358 1.544128
v -0.319555 0.203842 1.488826
v -0.296443 0.470696 0.928396
v -0.127645 0.589096 0.878849
v 0.000000 0.609305 0.870376
v -0.134772 0.077881 1.155814
v 0.000000 0.066561 1.154229
v -0.324951 0.144521 1.137389
v -0.292404 0.506543 0.611398
v -0.290073 0.105362 0.720109
v -0.278318 0.528214 0.326364
v -0.266292 0.104143 0.421072
v -0.250545 0.472388 0.013936
v -0.236519 0.150134 0.106448
v -0.213389 0.464875 -0.284701
v -0.202359 0.147092 -0.191849
v -0.156049 0.340496 -0.589481
v -0.156620 0.136964 -0.499250
v -0.092593 0.161595 -0.917185
v -0.050471 0.191691 -0.921290
v 0.000000 0.197159 -0.924781
v -0.050225 0.049079 -0.849685
v 0.000000 0.047620 -0.852645
v -0.095919 0.064686 -0.859940
v -0.067617 0.088237 -1.083951
v -0.038984 0.097100 -1.084122
v 0.000000 0.099477 -1.086709
v -0.038321 0.026979 -1.068162
v 0.000000 0.027955 -1.071144
v -0.067247 0.034235 -1.069395
v -0.052626 0.102971 -1.150286
v -0.030003 0.106549 -1.141137
v 0.000000 0.109638 -1.140592
v -0.025044 0.062171 -1.184777
v 0.000000 0.061537 -1.189279
v -0.045084 0.072246 -1.175879
v -0.041780 0.167273 -1.169249
v -0.024671 0.168458 -1.157677
v 0.000000 0.170929 -1.154009
v -0.019792 0.158729 -1.206392
v 0.000000 0.153748 -1.214464
v -0.035198 0.161469 -1.196583
v 0.000000 2.351174 1.553520
v -0.109098 2.329021 1.553547
v 0.000000 2.350637 1.362953
v -0.109595 2.330130 1.365123
v -0.185120 2.284772 1.553062
v 0.000000 2.152339 1.173331
v -0.119679 2.151931 1.189336
v 0.000000 2.028638 1.177739
v -0.122015 2.028884 1.194758
v -0.114904 1.735073 1.207941
v 0.000000 1.723492 1.195208
v 0.000000 1.730268 1.728727
v -0.115459 1.741083 1.722277
v -0.223896 1.780131 1.661938
v -0.279258 1.905792 1.591639
v -0.254286 1.685884 1.564207
v -0.250891 1.683695 1.375802
v -0.205861 1.569434 1.285741
v -0.240162 1.466865 1.355097
v -0.112442 1.537825 1.195801
v 0.000000 1.525997 1.181464
v 0.000000 1.536371 1.712776
v -0.113954 1.547186 1.701644
v -0.211910 1.574031 1.626626
v -0.244184 1.469053 1.541479
v -0.205521 1.351301 1.262733
v -0.249814 1.236147 1.338064
v -0.112340 1.320127 1.172566
v 0.000000 1.308299 1.158153
v 0.000000 1.318672 1.689465
v -0.113414 1.329488 1.679519
v -0.209819 1.355898 1.608057
v -0.251095 1.238336 1.525837
v -0.212779 1.107242 1.255178
v -0.275881 0.986686 1.335607
v -0.112442 1.076578 1.164994
v 0.000000 1.064877 1.150624
v 0.000000 1.074485 1.683574
v -0.112233 1.085302 1.673691
v -0.211943 1.111712 1.602290
v -0.273728 0.988747 1.530596
v -0.114798 0.853501 1.146895
v 0.000000 0.844802 1.133444
v 0.000000 0.829395 1.705628
v -0.113903 0.840322 1.695779
v -0.225053 0.867877 1.621523
v 0.000000 0.018068 0.577259
v -0.124771 0.027474 0.579459
v 0.000000 0.057332 0.280548
v -0.120407 0.066752 0.282977
v -0.119835 0.604249 -0.150206
v 0.000000 0.627235 -0.155020
v 0.000000 0.080670 -0.036732
v -0.113992 0.091886 -0.033524
v 0.000000 2.011106 1.945314
v -0.131444 2.020691 1.952110
v 0.000000 2.150922 1.946586
v -0.131444 2.140458 1.953483
v -0.276946 1.903394 1.375187
v -0.220929 1.776068 1.293082
v -0.127768 0.677176 0.459446
v 0.000000 0.702376 0.456219
v -0.125961 0.639007 0.165688
v 0.000000 0.662941 0.162260
v -0.103487 0.543359 -0.437328
v 0.000000 0.565207 -0.440035
v 0.000000 0.072073 -0.322681
v -0.098340 0.084803 -0.320364
v -0.278463 2.033945 1.375104
v -0.240500 1.938106 1.291440
v -0.265659 1.944604 1.690325
v -0.288501 2.037292 1.582449
v -0.241305 1.920083 1.808729
v -0.206531 1.923964 1.890155
v -0.245537 2.047298 1.293148
v -0.267262 2.129552 1.369241
v -0.285451 2.051838 1.672426
v -0.281710 2.132210 1.565922
v -0.270055 2.028072 1.810672
v -0.237285 2.025610 1.900023
v -0.229594 2.163057 1.283932
v -0.227783 2.235168 1.361148
v -0.269562 2.164018 1.654915
v -0.238978 2.232945 1.553320
v -0.258795 2.151427 1.805862
v -0.226520 2.149823 1.904062
v -0.201045 2.258516 1.297124
v -0.183469 2.291297 1.371968
v -0.222431 2.248244 1.645769
v -0.210570 2.250398 1.795956
v -0.190288 2.266068 1.906804
v 0.000000 0.240802 -1.114768
v -0.017814 0.238212 -1.136700
v 0.000000 0.242224 -1.138957
v -0.019407 0.238922 -1.156767
v -0.033180 0.218174 -1.159802
v -0.033705 0.218085 -1.174498
v 0.000000 1.887074 1.959529
v -0.115053 1.904683 1.940167
v 0.000000 2.312779 1.987014
v -0.112626 2.285718 1.960786
v -0.171226 2.020385 1.959010
v -0.169091 2.143978 1.961633
v 0.000000 2.276289 1.221834
v -0.115151 2.266423 1.231474
v 0.000000 1.895792 1.187577
v -0.119720 1.901706 1.201744
v -0.228632 0.871803 1.237902
v -0.302209 0.771328 1.322843
v -0.303785 0.748389 1.552122
v -0.247578 0.710556 1.209039
v -0.341819 0.614194 1.313243
v -0.117155 0.719536 1.108087
v 0.000000 0.715608 1.094312
v 0.000000 0.507771 1.737844
v -0.121513 0.521250 1.728845
v -0.265014 0.575565 1.654217
v -0.366360 0.482837 1.565668
v -0.258459 0.602463 1.154832
v -0.358951 0.483452 1.215032
v -0.117526 0.646454 1.052149
v 0.000000 0.648882 1.038103
v 0.000000 0.182647 1.663599
v -0.129852 0.198800 1.657028
v -0.307761 0.288263 1.593614
v -0.395474 0.295430 1.429128
v -0.282522 0.498854 1.033639
v -0.374486 0.383352 0.991670
v -0.123672 0.592627 0.961939
v 0.000000 0.607020 0.951209
v 0.000000 0.070626 1.367431
v -0.134814 0.084161 1.366264
v -0.327090 0.163572 1.332904
v -0.394085 0.209989 1.108741
v -0.298050 0.479222 0.776452
v -0.358655 0.393194 0.634152
v -0.128756 0.613305 0.746791
v 0.000000 0.636630 0.740397
v 0.000000 0.050378 0.931662
v -0.131554 0.060427 0.934352
v -0.309344 0.124173 0.920990
v -0.357083 0.177881 0.695729
v -0.286305 0.528482 0.466148
v -0.336342 0.406917 0.340753
v -0.276959 0.096646 0.562180
v -0.328280 0.178559 0.394737
v -0.265930 0.499665 0.172814
v -0.297273 0.369872 0.029773
v -0.252553 0.128401 0.266663
v -0.288026 0.199379 0.082276
v -0.233682 0.471018 -0.138204
v -0.253310 0.358973 -0.268945
v -0.219965 0.152352 -0.046181
v -0.246110 0.192251 -0.216227
v -0.187450 0.419485 -0.431336
v -0.189311 0.268941 -0.577090
v -0.182224 0.146852 -0.337239
v -0.190386 0.164904 -0.525558
v -0.121545 0.245733 -0.762628
v -0.114824 0.133801 -0.911208
v -0.068000 0.308759 -0.765396
v 0.000000 0.320368 -0.767806
v 0.000000 0.064921 -0.673024
v -0.065670 0.071036 -0.670659
v -0.124756 0.103753 -0.685960
v -0.117272 0.081195 -0.878643
v -0.076342 0.110235 -1.020894
v -0.079152 0.076656 -1.083742
v -0.042350 0.124213 -1.024250
v 0.000000 0.126929 -1.027792
v 0.000000 0.033336 -0.981545
v -0.042686 0.032696 -0.978453
v -0.078501 0.040544 -0.984250
v -0.078983 0.046235 -1.075194
v -0.059775 0.087026 -1.124530
v -0.059865 0.098289 -1.156643
v -0.034563 0.092957 -1.119811
v 0.000000 0.095688 -1.120856
v 0.000000 0.036094 -1.140720
v -0.031768 0.035349 -1.137559
v -0.055553 0.044619 -1.133271
v -0.055141 0.081468 -1.169870
v -0.047054 0.132490 -1.165220
v -0.045803 0.164351 -1.176865
v -0.027127 0.134469 -1.154000
v 0.000000 0.137532 -1.152124
v 0.000000 0.104747 -1.212682
v -0.021172 0.108188 -1.205518
v -0.038626 0.115384 -1.194896
v -0.041763 0.161173 -1.190887
v -0.035823 0.197895 -1.163342
v -0.021298 0.199975 -1.151551
v 0.000000 0.201426 -1.144570
v 0.000000 0.195557 -1.199777
v -0.019724 0.198469 -1.195719
v -0.033095 0.196961 -1.189214
v 0.000000 2.234705 1.988309
v -0.111981 2.190021 1.968313
v -0.173087 2.080086 1.959504
v -0.112227 1.974820 1.964129
v 0.000000 1.937860 1.976530
v -0.266996 1.801560 1.579539
v -0.242582 1.573979 1.367280
v -0.246741 1.576167 1.551828
v -0.242422 1.355030 1.344335
v -0.245377 1.357218 1.531935
v -0.262256 1.110859 1.337142
v -0.261681 1.113032 1.525817
v -0.264872 1.799356 1.377035
v -0.280291 1.979078 1.374947
v -0.286465 1.982078 1.590181
v -0.275537 2.080837 1.373394
v -0.288481 2.084214 1.574084
v -0.249612 2.184948 1.363513
v -0.263597 2.185693 1.558364
v -0.206983 2.268585 1.366004
v -0.213312 2.263094 1.552222
v -0.287722 0.871953 1.328645
v -0.285261 0.870698 1.538742
v -0.322819 0.686912 1.322739
v -0.334806 0.613590 1.568468
v -0.351938 0.547543 1.277977
v -0.385833 0.375240 1.520999
v -0.368729 0.422984 1.123457
v -0.399370 0.242764 1.290181
v -0.369335 0.378504 0.815887
v -0.377103 0.189369 0.897324
v -0.348623 0.406864 0.481708
v -0.342297 0.174131 0.536356
v -0.318259 0.388512 0.187814
v -0.309394 0.190043 0.241218
v -0.276477 0.366378 -0.122048
v -0.267409 0.198536 -0.069877
v -0.224463 0.325888 -0.416781
v -0.221446 0.184684 -0.363171
v -0.149719 0.198283 -0.753359
v -0.152397 0.124620 -0.709615
v -0.092606 0.093317 -1.017726
v -0.094121 0.054179 -0.996872
v -0.068682 0.079416 -1.127935
v -0.066041 0.055822 -1.132107
v -0.052417 0.129257 -1.172651
v -0.047200 0.119978 -1.187953
v -0.039514 0.195434 -1.170792
v -0.037855 0.194836 -1.184479
v -0.154799 2.140717 1.962050
v -0.155052 2.020840 1.960374
v 0.113993 1.830956 1.816165
v 0.116212 1.806261 1.739706
v 0.110108 2.318636 1.645991
v 0.107082 2.331669 1.799970
v 0.112490 2.305581 1.287869
v 0.191326 2.272808 1.644806
v 0.121337 2.087880 1.191711
v 0.117493 2.214266 1.198856
v 0.121484 1.969312 1.197689
v 0.117294 1.823713 1.205809
v 0.113158 1.638779 1.205208
v 0.114394 1.648140 1.712454
v 0.235045 1.870612 1.698586
v 0.215822 1.678033 1.640052
v 0.210883 1.673435 1.293558
v 0.204718 1.463136 1.273550
v 0.112339 1.431963 1.183383
v 0.113802 1.441324 1.689893
v 0.210568 1.467733 1.617103
v 0.208119 1.232418 1.256454
v 0.112340 1.201245 1.166286
v 0.112806 1.210606 1.673303
v 0.209983 1.237016 1.602030
v 0.219663 0.983849 1.251171
v 0.113159 0.956752 1.160867
v 0.112376 0.961017 1.681328
v 0.216531 0.987427 1.609029
v 0.116437 0.773634 1.127590
v 0.117010 0.699489 1.714085
v 0.240746 0.735059 1.638453
v 0.127441 0.038525 0.734880
v 0.122823 0.036524 0.439268
v 0.117503 0.092596 0.120115
v 0.123656 0.604310 0.003279
v 0.113512 0.599121 -0.294992
v 0.108197 0.082639 -0.177948
v 0.111522 1.862915 1.906852
v 0.209655 1.877114 1.807330
v 0.189217 1.892104 1.878767
v 0.146070 2.080007 1.950404
v 0.105705 1.984126 1.957067
v 0.105705 2.178983 1.959805
v 0.109181 2.333258 1.930002
v 0.178233 2.282275 1.792208
v 0.174305 2.296219 1.897306
v 0.232198 1.867280 1.290302
v 0.128230 0.649698 0.596567
v 0.127205 0.676160 0.321692
v 0.088234 0.439816 -0.592022
v 0.083823 0.085857 -0.480989
v 0.245028 1.994918 1.293746
v 0.279466 1.999806 1.681825
v 0.261082 1.972062 1.811276
v 0.225770 1.971896 1.898831
v 0.240631 2.102332 1.289258
v 0.282676 2.106136 1.663051
v 0.269085 2.088153 1.808238
v 0.237730 2.084901 1.899818
v 0.215575 2.218799 1.284316
v 0.248553 2.214587 1.648958
v 0.239051 2.208329 1.802071
v 0.208865 2.213324 1.908529
v 0.185591 2.281491 1.317563
v 0.018483 0.224208 -1.142031
v 0.019870 0.224877 -1.177769
v 0.031531 0.215440 -1.156508
v 0.031638 0.215378 -1.180946
v 0.126151 1.958808 1.961210
v 0.123799 2.213946 1.969981
v 0.186923 2.080889 1.958404
v 0.238454 0.779291 1.221872
v 0.254291 0.655448 1.190164
v 0.117257 0.680813 1.084503
v 0.126181 0.340470 1.717409
v 0.289987 0.416068 1.646685
v 0.266430 0.549079 1.103132
v 0.119411 0.615756 1.012129
v 0.132693 0.112901 1.539803
v 0.319555 0.203842 1.488826
v 0.296443 0.470696 0.928396
v 0.127645 0.589096 0.878849
v 0.134772 0.077881 1.155814
v 0.324951 0.144521 1.137389
v 0.292404 0.506543 0.611398
v 0.290073 0.105362 0.720109
v 0.278318 0.528214 0.326364
v 0.266292 0.104143 0.421072
v 0.250545 0.472388 0.013936
v 0.236519 0.150134 0.106448
v 0.213389 0.464875 -0.284701
v 0.202359 0.147092 -0.191849
v 0.156049 0.340496 -0.589481
v 0.156620 0.136964 -0.499250
v 0.092593 0.161595 -0.917185
v 0.050471 0.191691 -0.921290
v 0.050225 0.049079 -0.849685
v 0.095919 0.064686 -0.859940
v 0.067617 0.088237 -1.083951
v 0.038984 0.097100 -1.084122
v 0.038321 0.026979 -1.068162
v 0.067247 0.034235 -1.069395
v 0.052626 0.102971 -1.150286
v 0.030003 0.106549 -1.141137
v 0.025044 0.062171 -1.184777
v 0.045084 0.072246 -1.175879
v 0.041780 0.167273 -1.169249
v 0.024671 0.168458 -1.157677
v 0.019792 0.158729 -1.206392
v 0.035198 0.161469 -1.196583
v 0.109098 2.329021 1.553547
v 0.109595 2.330130 1.365123
v 0.185120 2.284772 1.553062
v 0.119679 2.151931 1.189336
v 0.122015 2.028884 1.194758
v 0.114904 1.735073 1.207941
v 0.115459 1.741083 1.722277
v 0.223896 1.780131 1.661938
v 0.279258 1.905792 1.591639
v 0.254286 1.685884 1.564207
v 0.250891 1.683695 1.375802
v 0.205861 1.569434 1.285741
v 0.240162 1.466865 1.355097
v 0.112442 1.537825 1.195801
v 0.113954 1.547186 1.701644
v 0.211910 1.574031 1.626626
v 0.244184 1.469053 1.541479
v 0.205521 1.351301 1.262733
v 0.249814 1.236147 1.338064
v 0.112340 1.320127 1.172566
v 0.113414 1.329488 1.679519
v 0.209819 1.355898 1.608057
v 0.251095 1.238336 1.525837
v 0.212779 1.107242 1.255178
v 0.275881 0.986686 1.335607
v 0.112442 1.076578 1.164994
v 0.112233 1.085302 1.673691
v 0.211943 1.111712 1.602290
v 0.273728 0.988747 1.530596
v 0.114798 0.853501 1.146895
v 0.113903 0.840322 1.695779
v 0.225053 0.867877 1.621523
v 0.124771 0.027474 0.579459
v 0.120407 0.066752 0.282977
v 0.119835 0.604249 -0.150206
v 0.113992 0.091886 -0.033524
v 0.131444 2.020691 1.952110
v 0.131444 2.140458 1.953483
v 0.276946 1.903394 1.375187
v 0.220929 1.776068 1.293082
v 0.127768 0.677176 0.459446
v 0.125961 0.639007 0.165688
v 0.103487 0.543359 -0.437328
v 0.098340 0.084803 -0.320364
v 0.278463 2.033945 1.375104
v 0.240500 1.938106 1.291440
v 0.265659 1.944604 1.690325
v 0.288501 2.037292 1.582449
v 0.241305 1.920083 1.808729
v 0.206531 1.923964 1.890155
v 0.245537 2.047298 1.293148
v 0.267262 2.129552 1.369241
v 0.285451 2.051838 1.672426
v 0.281710 2.132210 1.565922
v 0.270055 2.028072 1.810672
v 0.237285 2.025610 1.900023
v 0.229594 2.163057 1.283932
v 0.227783 2.235168 1.361148
v 0.269562 2.164018 1.654915
v 0.238978 2.232945 1.553320
v 0.258795 2.151427 1.805862
v 0.226520 2.149823 1.904062
v 0.201045 2.258516 1.297124
v 0.183469 2.291297 1.371968
v 0.222431 2.248244 1.645769
v 0.210570 2.250398 1.795956
v 0.190288 2.266068 1.906804
v 0.017814 0.238212 -1.136700
v 0.019407 0.238922 -1.156767
v 0.033180 0.218174 -1.159802
v 0.033705 0.218085 -1.174498
v 0.115053 1.904683 1.940167
v 0.112626 2.285718 1.960786
v 0.171226 2.020385 1.959010
v 0.169091 2.143978 1.961633
v 0.115151 2.266423 1.231474
v 0.119720 1.901706 1.201744
v 0.228632 0.871803 1.237902
v 0.302209 0.771328 1.322843
v 0.303785 0.748389 1.552122
v 0.247578 0.710556 1.209039
v 0.341819 0.614194 1.313243
v 0.117155 0.719536 1.108087
v 0.121513 0.521250 1.728845
v 0.265014 0.575565 1.654217
v 0.366360 0.482837 1.565668
v 0.258459 0.602463 1.154832
v 0.358951 0.483452 1.215032
v 0.117526 0.646454 1.052149
v 0.129852 0.198800 1.657028
v 0.307761 0.288263 1.593614
v 0.395474 0.295430 1.429128
v 0.282522 0.498854 1.033639
v 0.374486 0.383352 0.991670
v 0.123672 0.592627 0.961939
v 0.134814 0.084161 1.366264
v 0.327090 0.163572 1.332904
v 0.394085 0.209989 1.108741
v 0.298050 0.479222 0.776452
v 0.358655 0.393194 0.634152
v 0.128756 0.613305 0.746791
v 0.131554 0.060427 0.934352
v 0.309344 0.124173 0.920990
v 0.357083 0.177881 0.695729
v 0.286305 0.528482 0.466148
v 0.336342 0.406917 0.340753
v 0.276959 0.096646 0.562180
v 0.328280 0.178559 0.394737
v 0.265930 0.499665 0.172814
v 0.297273 0.369872 0.029773
v 0.252553 0.128401 0.266663
v 0.288026 0.199379 0.082276
v 0.233682 0.471018 -0.138204
v 0.253310 0.358973 -0.268945
v 0.219965 0.152352 -0.046181
v 0.246110 0.192251 -0.216227
v 0.187450 0.419485 -0.431336
v 0.189311 0.268941 -0.577090
v 0.182224 0.146852 -0.337239
v 0.190386 0.164904 -0.525558
v 0.121545 0.245733 -0.762628
v 0.114824 0.133801 -0.911208
v 0.068000 0.308759 -0.765396
v 0.065670 0.071036 -0.670659
v 0.124756 0.103753 -0.685960
v 0.117272 0.081195 -0.878643
v 0.076342 0.110235 -1.020894
v 0.079152 0.076656 -1.083742
v 0.042350 0.124213 -1.024250
v 0.042686 0.032696 -0.978453
v 0.078501 0.040544 -0.984250
v 0.078983 0.046235 -1.075194
v 0.059775 0.087026 -1.124530
v 0.059865 0.098289 -1.156643
v 0.034563 0.092957 -1.119811
v 0.031768 0.035349 -1.137559
v 0.055553 0.044619 -1.133271
v 0.055141 0.081468 -1.169870
v 0.047054 0.132490 -1.165220
v 0.045803 0.164351 -1.176865
v 0.027127 0.134469 -1.154000
v 0.021172 0.108188 -1.205518
v 0.038626 0.115384 -1.194896
v 0.041763 0.161173 -1.190887
v 0.035823 0.197895 -1.163342
v 0.021298 0.199975 -1.151551
v 0.019724 0.198469 -1.195719
v 0.033095 0.196961 -1.189214
v 0.111981 2.190021 1.968313
v 0.173087 2.080086 1.959504
v 0.112227 1.974820 1.964129
v 0.266996 1.801560 1.579539
v 0.242582 1.573979 1.367280
v 0.246741 1.576167 1.551828
v 0.242422 1.355030 1.344335
v 0.245377 1.357218 1.531935
v 0.262256 1.110859 1.337142
v 0.261681 1.113032 1.525817
v 0.264872 1.799356 1.377035
v 0.280291 1.979078 1.374947
v 0.286465 1.982078 1.590181
v 0.275537 2.080837 1.373394
v 0.288481 2.084214 1.574084
v 0.249612 2.184948 1.363513
v 0.263597 2.185693 1.558364
v 0.206983 2.268585 1.366004
v 0.213312 2.263094 1.552222
v 0.287722 0.871953 1.328645
v 0.285261 0.870698 1.538742
v 0.322819 0.686912 1.322739
v 0.334806 0.613590 1.568468
v 0.351938 0.547543 1.277977
v 0.385833 0.375240 1.520999
v 0.368729 0.422984 1.123457
v 0.399370 0.242764 1.290181
v 0.369335 0.378504 0.815887
v 0.377103 0.189369 0.897324
v 0.348623 0.406864 0.481708
v 0.342297 0.174131 0.536356
v 0.318259 0.388512 0.187814
v 0.309394 0.190043 0.241218
v 0.276477 0.366378 -0.122048
v 0.267409 0.198536 -0.069877
v 0.224463 0.325888 -0.416781
v 0.221446 0.184684 -0.363171
v 0.149719 0.198283 -0.753359
v 0.152397 0.124620 -0.709615
v 0.092606 0.093317 -1.017726
v 0.094121 0.054179 -0.996872
v 0.068682 0.079416 -1.127935
v 0.066041 0.055822 -1.132107
v 0.052417 0.129257 -1.172651
v 0.047200 0.119978 -1.187953
v 0.039514 0.195434 -1.170792
v 0.037855 0.194836 -1.184479
v 0.154799 2.140717 1.962050
v 0.155052 2.020840 1.960374
vn -0.2333 -0.9650 0.1195
vn -0.0000 -0.8577 0.5142
vn -0.0650 -0.8406 0.5377
vn -0.3002 -0.7415 0.6001
vn -0.3090 0.9350 -0.1739
vn -0.6148 0.7848 -0.0782
vn -0.5923 0.8036 0.0585
vn -0.3472 0.9335 0.0892
vn -0.0446 0.8898 -0.4542
vn -0.2736 0.8663 -0.4180
vn -0.0000 0.9739 -0.2268
vn -0.0654 0.9963 0.0562
vn -0.3498 0.9358 0.0445
vn -0.0000 0.9988 -0.0485
vn -0.1051 -0.0392 -0.9937
vn -0.3648 -0.0320 -0.9305
vn -0.3574 0.0650 -0.9317
vn -0.0000 -0.0312 -0.9995
vn -0.2250 -0.5679 0.7918
vn -0.8530 -0.3890 0.3480
vn -0.8070 -0.2243 0.5463
vn -0.2357 -0.1919 0.9527
vn -0.5961 0.8012 0.0525
vn -0.1010 -0.0640 -0.9928
vn -0.3527 -0.0555 -0.9341
vn -0.3623 -0.0449 -0.9310
vn -0.0000 -0.1569 -0.9876
vn -0.3281 0.3335 -0.8838
vn -0.0000 0.2748 -0.9615
vn -0.3332 -0.0495 -0.9416
vn -0.0000 -0.1289 -0.9917
vn -0.0870 0.0151 -0.9961
vn -0.3471 -0.0112 -0.9378
vn -0.0903 0.0760 -0.9930
vn -0.3642 0.0491 -0.9300
vn -0.1826 -0.6476 0.7398
vn -0.0000 -0.1004 0.9950
vn -0.2931 -0.1088 0.9499
vn -0.0000 -0.0246 0.9997
vn -0.0919 0.1170 -0.9889
vn -0.3715 0.0950 -0.9236
vn -0.8143 -0.1393 0.5635
vn -0.8528 0.0228 -0.5217
vn -0.8432 -0.0420 -0.5360
vn -0.9662 -0.1526 0.2078
vn -0.9492 -0.1538 0.2744
vn -0.9458 -0.1107 -0.3053
vn -0.9488 -0.0771 -0.3064
vn -0.9477 -0.1218 0.2949
vn -0.9542 -0.0166 -0.2987
vn -0.9555 -0.0732 0.2856
vn -0.9556 0.0294 -0.2933
vn -0.9598 -0.0317 0.2787
vn -0.8551 0.0538 -0.5157
vn -0.9507 0.0586 -0.3046
vn -0.9555 0.0066 0.2950
vn -0.3755 0.0980 -0.9216
vn -0.8284 -0.0843 0.5538
vn -0.3203 -0.1038 0.9416
vn -0.0930 0.1163 -0.9889
vn -0.0000 -0.0315 0.9995
vn -0.3160 -0.0962 0.9439
vn -0.0000 -0.0285 0.9996
vn -0.0951 0.0835 -0.9920
vn -0.3818 0.0685 -0.9217
vn -0.8332 -0.0558 0.5501
vn -0.8489 0.0557 -0.5256
vn -0.9380 0.0801 -0.3371
vn -0.9396 0.0515 0.3384
vn -0.8319 0.0483 -0.5529
vn -0.9214 0.0953 -0.3768
vn -0.9153 0.0885 0.3930
vn -0.3881 0.0293 -0.9212
vn -0.8259 -0.0346 0.5627
vn -0.3062 -0.0699 0.9494
vn -0.0975 0.0405 -0.9944
vn -0.0000 -0.0009 1.0000
vn -0.2990 -0.0245 0.9540
vn -0.0000 0.0459 0.9989
vn -0.0972 0.0330 -0.9947
vn -0.3841 0.0240 -0.9230
vn -0.8037 0.0010 0.5951
vn -0.8061 0.0548 -0.5892
vn -0.9104 0.1098 -0.3990
vn -0.8969 0.1088 0.4287
vn -0.7815 0.0966 -0.6163
vn -0.9889 -0.0895 0.1186
vn -0.9585 -0.0108 -0.2850
vn -0.9512 -0.0794 -0.2983
vn -0.3602 0.0872 -0.9288
vn -0.7702 0.0457 0.6362
vn -0.2894 0.0316 0.9567
vn -0.0918 0.0963 -0.9911
vn -0.0000 0.1005 0.9949
vn -0.2732 0.0911 0.9576
vn -0.0000 0.1552 0.9879
vn -0.0840 0.1964 -0.9769
vn -0.3279 0.1842 -0.9266
vn -0.7405 0.0933 0.6655
vn -0.7169 0.1433 0.6823
vn -0.2522 0.1272 0.9593
vn -0.0795 0.3032 -0.9496
vn -0.3103 0.2783 -0.9090
vn -0.0000 0.1838 0.9830
vn -0.2319 0.1105 0.9664
vn -0.0000 0.1618 0.9868
vn -0.0551 -0.9945 0.0896
vn -0.1944 -0.9775 0.0823
vn -0.2050 -0.9788 -0.0007
vn -0.0000 -0.9983 0.0574
vn -0.6796 0.1727 0.7130
vn -0.6823 -0.7080 0.1819
vn -0.6099 -0.6129 0.5024
vn -0.2097 -0.9695 -0.1272
vn -0.0000 -0.9973 -0.0735
vn -0.2200 -0.9597 -0.1747
vn -0.0000 -0.9932 -0.1163
vn -0.2510 -0.9643 -0.0847
vn -0.0000 -1.0000 -0.0072
vn -0.4761 0.8728 -0.1078
vn -0.0000 0.9679 -0.2515
vn -0.1501 0.9885 -0.0158
vn -0.4982 0.8662 -0.0384
vn -0.1514 0.9662 -0.2088
vn -0.5158 0.8326 -0.2016
vn -0.2964 -0.9549 0.0173
vn -0.0000 -0.9934 0.1149
vn -0.3429 -0.9394 0.0012
vn -0.0000 -0.9937 0.1121
vn 0.0264 -0.0094 0.9996
vn 0.1027 -0.0103 0.9947
vn 0.0972 0.1124 0.9889
vn -0.0000 0.1243 0.9922
vn -0.3566 0.9237 -0.1402
vn -0.3962 0.7834 0.4789
vn -0.0000 0.9326 0.3609
vn -0.1210 0.9912 -0.0530
vn -0.6727 0.7378 -0.0551
vn -0.0000 -0.2996 0.9541
vn 0.0881 -0.2474 0.9649
vn 0.0985 -0.1360 0.9858
vn -0.0000 -0.2101 0.9777
vn 0.0870 0.2201 0.9716
vn -0.0000 0.2660 0.9640
vn -0.7501 0.6254 0.2152
vn -0.4193 0.8875 0.1910
vn -0.0000 0.9970 0.0768
vn -0.1477 0.9841 0.0985
vn -0.4412 0.8937 0.0812
vn -0.8574 -0.4761 0.1958
vn -0.9527 -0.2678 0.1437
vn -0.8294 -0.0944 -0.5507
vn -0.8221 -0.0921 -0.5619
vn -0.9070 0.1382 -0.3978
vn -0.8870 0.1463 0.4380
vn -0.1455 0.9819 -0.1215
vn -0.4498 0.8862 -0.1110
vn -0.1417 0.9643 -0.2239
vn -0.4544 0.8673 -0.2035
vn -0.1389 0.8682 -0.4764
vn -0.5061 0.7473 -0.4307
vn -0.1186 0.7921 -0.5987
vn -0.4735 0.6942 -0.5421
vn -0.3733 -0.9268 -0.0408
vn -0.0000 -0.9968 0.0797
vn -0.3657 -0.9307 0.0003
vn -0.0000 -0.9929 0.1189
vn -0.2041 0.9071 -0.3681
vn -0.8321 0.4484 -0.3263
vn -0.9265 0.1400 0.3494
vn -0.7922 0.0270 0.6097
vn -0.9985 -0.0183 0.0517
vn -0.9641 0.0347 -0.2634
vn -0.9971 0.0730 0.0221
vn -0.9641 0.0892 -0.2502
vn -0.8406 -0.0181 -0.5413
vn -0.8273 -0.0535 -0.5592
vn -0.9869 -0.1420 0.0767
vn -0.9467 -0.2589 0.1914
vn -0.6779 -0.4658 0.5687
vn -0.7498 -0.2916 0.5939
vn -0.9796 -0.0649 0.1903
vn -0.9982 -0.0097 0.0585
vn -0.8505 0.0184 -0.5256
vn -0.9736 0.2279 0.0131
vn -0.9500 0.1993 -0.2402
vn -0.9230 0.3848 0.0034
vn -0.9252 0.3190 -0.2057
vn -0.8550 0.0845 -0.5116
vn -0.9867 0.1528 0.0559
vn -0.9776 0.0949 0.1880
vn -0.8183 -0.1062 0.5649
vn -0.8481 0.0526 0.5272
vn -0.9549 0.2450 0.1676
vn -0.9471 0.3177 0.0453
vn -0.8576 0.1795 -0.4820
vn -0.8342 0.5514 0.0089
vn -0.8794 0.4511 -0.1525
vn -0.7706 0.6298 -0.0978
vn -0.6962 0.7170 0.0358
vn -0.8331 0.3386 -0.4374
vn -0.8595 0.5094 0.0417
vn -0.8913 0.4390 0.1133
vn -0.8368 0.1696 0.5206
vn -0.8211 0.2729 0.5013
vn -0.7763 0.6299 0.0261
vn -0.7117 0.7007 0.0510
vn -0.7390 0.5757 -0.3500
vn -0.2522 0.9120 -0.3234
vn -0.0000 0.7754 0.6315
vn -0.6116 0.7581 -0.2265
vn -0.8081 0.4266 0.4061
vn -0.0449 0.7709 -0.6354
vn -0.0478 0.7216 -0.6906
vn -0.5978 -0.2595 0.7585
vn -0.0000 -0.4330 0.9014
vn -0.0451 -0.2294 0.9723
vn -0.2948 -0.2297 0.9275
vn -0.3373 -0.5128 0.7894
vn -0.0000 -0.5244 0.8515
vn -0.6506 0.4319 -0.6247
vn -0.8147 -0.0314 0.5790
vn -0.3860 0.3615 0.8487
vn -0.0000 0.4850 0.8745
vn -0.2838 0.6611 -0.6946
vn -0.0000 0.6408 -0.7677
vn -0.2897 0.0353 0.9565
vn -0.0000 0.0576 0.9983
vn -0.3584 -0.1344 0.9239
vn -0.4153 -0.0107 0.9096
vn -0.3442 0.0595 0.9370
vn -0.3380 -0.0621 -0.9391
vn -0.0000 -0.1610 -0.9869
vn -0.0786 0.4561 -0.8864
vn -0.3066 0.4100 -0.8590
vn -0.7688 0.1553 -0.6204
vn -0.9032 0.1899 -0.3849
vn -0.8639 0.2111 0.4573
vn -0.7677 0.2012 -0.6084
vn -0.8971 0.2541 -0.3615
vn -0.8354 0.2115 0.5073
vn -0.7700 0.2601 -0.5826
vn -0.8913 0.3019 -0.3382
vn -0.8555 0.0656 0.5136
vn -0.7646 0.3541 -0.5386
vn -0.8805 0.3526 -0.3169
vn -0.9021 -0.1521 0.4039
vn -0.3047 0.5747 -0.7595
vn -0.6359 0.1200 0.7624
vn -0.2231 0.0161 0.9747
vn -0.0792 0.6325 -0.7705
vn -0.0000 0.0649 0.9979
vn -0.2444 -0.2190 0.9446
vn -0.0000 -0.1728 0.9850
vn -0.0855 0.7671 -0.6358
vn -0.3105 0.7076 -0.6347
vn -0.6464 -0.0762 0.7592
vn -0.7474 0.4689 -0.4707
vn -0.8653 0.4293 -0.2588
vn -0.9185 -0.3187 0.2342
vn -0.7260 0.5836 -0.3638
vn -0.8594 0.4833 -0.1668
vn -0.9011 -0.4208 0.1043
vn -0.3315 0.8167 -0.4724
vn -0.6960 -0.3716 0.6144
vn -0.2772 -0.5915 0.7572
vn -0.1013 0.8796 -0.4648
vn -0.0000 -0.5665 0.8240
vn -0.2666 -0.8846 0.3825
vn -0.0000 -0.8927 0.4506
vn -0.1189 0.9776 -0.1737
vn -0.3610 0.9108 -0.2003
vn -0.6971 -0.6240 0.3532
vn -0.7113 0.6737 -0.2005
vn -0.8724 0.4826 -0.0782
vn -0.8715 -0.4900 0.0209
vn -0.7155 0.6978 -0.0336
vn -0.9010 0.4330 -0.0275
vn -0.8555 -0.5169 -0.0308
vn -0.3759 0.9240 0.0705
vn -0.6417 -0.7532 0.1445
vn -0.2212 -0.9700 0.1006
vn -0.1278 0.9857 0.1098
vn -0.0000 -0.9883 0.1527
vn -0.1915 -0.9801 0.0528
vn -0.0000 -0.9945 0.1045
vn -0.1357 0.9642 0.2279
vn -0.3952 0.8991 0.1880
vn -0.5871 -0.8076 0.0562
vn -0.7496 0.6596 0.0554
vn -0.9290 0.3695 -0.0213
vn -0.8607 -0.5061 -0.0559
vn -0.7931 0.6059 0.0624
vn -0.9448 0.3237 -0.0518
vn -0.8659 -0.4934 -0.0824
vn -0.5788 -0.8149 0.0285
vn -0.1853 -0.9788 0.0872
vn -0.0000 -0.9895 0.1445
vn -0.0932 0.7798 -0.6190
vn -0.4158 0.7047 -0.5749
vn -0.6080 -0.7940 0.0055
vn -0.8249 0.5652 0.0016
vn -0.9497 0.2925 -0.1121
vn -0.8558 -0.5023 -0.1238
vn -0.8390 0.5335 -0.1069
vn -0.9511 0.2696 -0.1505
vn -0.8340 -0.5325 -0.1449
vn -0.6301 -0.7750 -0.0477
vn -0.6219 -0.7725 -0.1285
vn -0.8468 0.5059 -0.1644
vn -0.9562 0.2545 -0.1444
vn -0.8202 -0.5585 -0.1241
vn -0.8645 0.4847 -0.1330
vn -0.9597 0.2412 -0.1444
vn -0.8218 -0.5609 -0.1001
vn -0.5985 -0.7841 -0.1641
vn -0.5970 -0.7938 -0.1159
vn -0.8825 0.4554 -0.1173
vn -0.9542 0.2268 -0.1950
vn -0.8222 -0.5599 -0.1029
vn -0.8879 0.4129 -0.2031
vn -0.9384 0.2261 -0.2612
vn -0.8122 -0.5754 -0.0962
vn -0.6248 -0.7786 -0.0588
vn -0.6490 -0.7581 -0.0638
vn -0.8704 0.3804 -0.3126
vn -0.9178 0.2553 -0.3040
vn -0.7995 -0.5981 -0.0558
vn -0.8402 0.3947 -0.3720
vn -0.8917 0.3103 -0.3295
vn -0.7920 -0.6103 -0.0181
vn -0.6468 -0.7596 -0.0685
vn -0.6286 -0.7777 -0.0124
vn -0.7899 0.4607 -0.4047
vn -0.8620 0.3771 -0.3388
vn -0.7952 -0.6062 -0.0130
vn -0.7110 0.5654 -0.4181
vn -0.8429 0.4363 -0.3148
vn -0.8009 -0.5961 -0.0566
vn -0.3158 0.7638 -0.5629
vn -0.5975 -0.8000 0.0546
vn -0.2932 -0.9533 0.0720
vn -0.0593 0.8079 -0.5863
vn -0.0000 -0.9870 0.1608
vn -0.1678 -0.9794 0.1125
vn -0.0000 -0.9878 0.1559
vn -0.0288 0.8726 -0.4876
vn -0.2074 0.8529 -0.4791
vn -0.5568 -0.8266 0.0815
vn -0.6271 0.6797 -0.3804
vn -0.8437 0.4829 -0.2346
vn -0.7960 -0.5779 -0.1799
vn -0.5688 0.7873 -0.2381
vn -0.8650 0.4969 -0.0689
vn -0.7808 -0.4953 -0.3809
vn -0.1400 0.9517 -0.2731
vn -0.5306 -0.8467 0.0402
vn -0.0682 -0.9934 0.0924
vn -0.0125 0.9637 -0.2667
vn -0.0000 -0.9941 0.1086
vn -0.0642 -0.9973 -0.0354
vn -0.0000 -0.9999 -0.0132
vn -0.0237 0.9699 0.2424
vn -0.1415 0.9712 0.1914
vn -0.5447 -0.8312 -0.1116
vn -0.5656 0.8189 0.0975
vn -0.9065 0.4056 0.1170
vn -0.7548 -0.2944 -0.5861
vn -0.6361 0.6116 0.4704
vn -0.9464 0.2623 0.1887
vn -0.7300 -0.0574 -0.6810
vn -0.1976 0.6741 0.7117
vn -0.5985 -0.7083 -0.3743
vn -0.1675 -0.9298 -0.3277
vn -0.0461 0.6328 0.7729
vn -0.0000 -0.9602 -0.2793
vn -0.3192 -0.6312 -0.7069
vn -0.0000 -0.7148 -0.6994
vn -0.0603 0.2336 0.9705
vn -0.2687 0.2848 0.9201
vn -0.6376 -0.4218 -0.6446
vn -0.7362 0.3109 0.6011
vn -0.9636 0.1788 0.1986
vn -0.7551 0.1244 -0.6437
vn -0.8033 0.1191 0.5836
vn -0.8331 0.2579 -0.4894
vn -0.9578 0.1396 0.2513
vn -0.3410 -0.0066 0.9400
vn -0.6185 -0.1101 -0.7780
vn -0.4151 -0.1877 -0.8902
vn -0.0669 -0.0919 0.9935
vn -0.0000 -0.2866 -0.9580
vn -0.3830 0.1257 -0.9152
vn -0.0000 0.0798 -0.9968
vn -0.0691 -0.3608 0.9301
vn -0.4421 -0.2087 0.8724
vn -0.6116 0.1130 -0.7830
vn -0.8214 0.0115 0.5702
vn -0.6370 0.2928 -0.7131
vn -0.2088 0.4188 -0.8837
vn -0.0000 0.4079 -0.9130
vn 0.0745 -0.3106 0.9476
vn -0.0000 -0.4622 0.8868
vn 0.2638 -0.4721 0.8412
vn -0.0000 -0.5584 0.8296
vn 0.0567 0.2633 0.9630
vn 0.0430 0.2078 0.9772
vn 0.1208 -0.1366 0.9832
vn 0.0943 -0.0172 0.9954
vn 0.3275 -0.0110 0.9448
vn 0.3399 -0.2894 0.8948
vn 0.0841 0.0686 0.9941
vn 0.2489 0.4503 0.8575
vn 0.3306 0.2684 0.9048
vn -0.0000 0.5227 0.8525
vn 0.2334 -0.9650 0.1195
vn 0.3002 -0.7415 0.6001
vn 0.3090 0.9350 -0.1739
vn 0.3472 0.9336 0.0892
vn 0.5923 0.8036 0.0585
vn 0.6148 0.7848 -0.0782
vn 0.2736 0.8663 -0.4180
vn 0.3498 0.9358 0.0445
vn 0.3574 0.0650 -0.9317
vn 0.3648 -0.0320 -0.9305
vn 0.2250 -0.5679 0.7918
vn 0.2357 -0.1919 0.9527
vn 0.8070 -0.2243 0.5463
vn 0.8530 -0.3890 0.3480
vn 0.5961 0.8012 0.0525
vn 0.3623 -0.0449 -0.9310
vn 0.3527 -0.0555 -0.9341
vn 0.3281 0.3335 -0.8838
vn 0.3332 -0.0495 -0.9416
vn 0.3471 -0.0112 -0.9378
vn 0.3642 0.0491 -0.9300
vn 0.2931 -0.1088 0.9499
vn 0.3715 0.0950 -0.9236
vn 0.8143 -0.1393 0.5635
vn 0.8432 -0.0420 -0.5360
vn 0.8528 0.0228 -0.5217
vn 0.9492 -0.1538 0.2744
vn 0.9662 -0.1526 0.2078
vn 0.9477 -0.1218 0.2949
vn 0.9488 -0.0771 -0.3064
vn 0.9458 -0.1107 -0.3053
vn 0.9555 -0.0732 0.2856
vn 0.9542 -0.0166 -0.2987
vn 0.9598 -0.0317 0.2787
vn 0.9556 0.0294 -0.2933
vn 0.8551 0.0538 -0.5157
vn 0.9555 0.0066 0.2950
vn 0.9507 0.0586 -0.3046
vn 0.3755 0.0980 -0.9216
vn 0.3203 -0.1038 0.9416
vn 0.8284 -0.0843 0.5538
vn 0.3160 -0.0962 0.9439
vn 0.3818 0.0685 -0.9217
vn 0.8332 -0.0558 0.5501
vn 0.8489 0.0557 -0.5256
vn 0.9396 0.0515 0.3384
vn 0.9380 0.0801 -0.3371
vn 0.8319 0.0483 -0.5529
vn 0.9153 0.0885 0.3930
vn 0.9214 0.0953 -0.3767
vn 0.3881 0.0293 -0.9212
vn 0.3062 -0.0699 0.9494
vn 0.8259 -0.0346 0.5627
vn 0.2990 -0.0245 0.9540
vn 0.3841 0.0240 -0.9230
vn 0.8037 0.0010 0.5951
vn 0.8061 0.0548 -0.5892
vn 0.8969 0.1088 0.4286
vn 0.9104 0.1097 -0.3990
vn 0.7815 0.0966 -0.6163
vn 0.9512 -0.0794 -0.2983
vn 0.9585 -0.0108 -0.2850
vn 0.9889 -0.0895 0.1186
vn 0.3602 0.0872 -0.9288
vn 0.2894 0.0316 0.9567
vn 0.7702 0.0457 0.6362
vn 0.2732 0.0911 0.9576
vn 0.3279 0.1842 -0.9266
vn 0.7405 0.0933 0.6655
vn 0.2522 0.1272 0.9593
vn 0.7169 0.1433 0.6823
vn 0.3103 0.2783 -0.9090
vn 0.2319 0.1105 0.9664
vn 0.2050 -0.9788 -0.0007
vn 0.1944 -0.9775 0.0823
vn 0.6796 0.1727 0.7130
vn 0.6823 -0.7080 0.1819
vn 0.6099 -0.6129 0.5024
vn 0.2097 -0.9695 -0.1272
vn 0.2200 -0.9597 -0.1747
vn 0.2510 -0.9643 -0.0847
vn 0.4761 0.8728 -0.1078
vn 0.4982 0.8662 -0.0384
vn 0.5158 0.8326 -0.2016
vn 0.2964 -0.9549 0.0173
vn 0.3429 -0.9394 0.0012
vn -0.0972 0.1124 0.9889
vn -0.1027 -0.0103 0.9947
vn 0.3566 0.9237 -0.1402
vn 0.3962 0.7834 0.4789
vn 0.6727 0.7378 -0.0551
vn -0.0985 -0.1360 0.9858
vn -0.0881 -0.2474 0.9649
vn -0.0870 0.2201 0.9716
vn 0.7500 0.6254 0.2152
vn 0.4193 0.8875 0.1910
vn 0.4412 0.8937 0.0812
vn 0.9527 -0.2678 0.1437
vn 0.8574 -0.4761 0.1957
vn 0.8221 -0.0921 -0.5619
vn 0.8294 -0.0944 -0.5507
vn 0.8870 0.1462 0.4380
vn 0.9070 0.1382 -0.3978
vn 0.4498 0.8862 -0.1110
vn 0.4544 0.8673 -0.2035
vn 0.5061 0.7473 -0.4307
vn 0.4735 0.6942 -0.5421
vn 0.3733 -0.9268 -0.0408
vn 0.3657 -0.9307 0.0003
vn 0.2041 0.9071 -0.3680
vn 0.7922 0.0270 0.6097
vn 0.9265 0.1401 0.3493
vn 0.8321 0.4484 -0.3263
vn 0.9641 0.0347 -0.2634
vn 0.9985 -0.0183 0.0517
vn 0.9641 0.0892 -0.2502
vn 0.9971 0.0730 0.0221
vn 0.8273 -0.0535 -0.5592
vn 0.8406 -0.0181 -0.5413
vn 0.9869 -0.1420 0.0767
vn 0.9467 -0.2589 0.1914
vn 0.6779 -0.4658 0.5687
vn 0.7498 -0.2916 0.5939
vn 0.9982 -0.0097 0.0585
vn 0.9796 -0.0649 0.1903
vn 0.8505 0.0184 -0.5256
vn 0.9500 0.1993 -0.2402
vn 0.9736 0.2279 0.0131
vn 0.9252 0.3190 -0.2057
vn 0.9230 0.3848 0.0034
vn 0.8550 0.0845 -0.5116
vn 0.9867 0.1529 0.0559
vn 0.9776 0.0949 0.1880
vn 0.8183 -0.1062 0.5649
vn 0.8481 0.0526 0.5272
vn 0.9471 0.3177 0.0453
vn 0.9549 0.2450 0.1676
vn 0.8576 0.1795 -0.4820
vn 0.8794 0.4511 -0.1525
vn 0.8342 0.5514 0.0089
vn 0.7706 0.6298 -0.0978
vn 0.6962 0.7170 0.0358
vn 0.8331 0.3386 -0.4374
vn 0.8595 0.5094 0.0417
vn 0.8913 0.4390 0.1133
vn 0.8368 0.1696 0.5206
vn 0.8211 0.2729 0.5013
vn 0.7117 0.7007 0.0510
vn 0.7763 0.6299 0.0261
vn 0.7390 0.5757 -0.3500
vn 0.6116 0.7581 -0.2265
vn 0.8081 0.4266 0.4061
vn 0.0479 0.7216 -0.6906
vn 0.5978 -0.2595 0.7585
vn 0.3373 -0.5128 0.7894
vn 0.2948 -0.2297 0.9275
vn 0.6505 0.4319 -0.6247
vn 0.8147 -0.0314 0.5790
vn 0.3860 0.3615 0.8487
vn 0.2838 0.6611 -0.6946
vn 0.2897 0.0354 0.9565
vn 0.4153 -0.0107 0.9096
vn 0.3584 -0.1344 0.9239
vn 0.3442 0.0595 0.9370
vn 0.3380 -0.0621 -0.9391
vn 0.3066 0.4100 -0.8590
vn 0.7688 0.1553 -0.6204
vn 0.8639 0.2111 0.4573
vn 0.9032 0.1899 -0.3848
vn 0.7677 0.2012 -0.6084
vn 0.8354 0.2115 0.5073
vn 0.8971 0.2541 -0.3615
vn 0.7700 0.2601 -0.5826
vn 0.8556 0.0656 0.5135
vn 0.8914 0.3018 -0.3382
vn 0.7646 0.3541 -0.5386
vn 0.9021 -0.1521 0.4038
vn 0.8805 0.3525 -0.3169
vn 0.3047 0.5747 -0.7595
vn 0.2231 0.0161 0.9747
vn 0.6359 0.1200 0.7624
vn 0.2444 -0.2190 0.9446
vn 0.3105 0.7076 -0.6347
vn 0.6464 -0.0762 0.7592
vn 0.7474 0.4689 -0.4707
vn 0.9185 -0.3187 0.2342
vn 0.8653 0.4293 -0.2587
vn 0.7260 0.5836 -0.3638
vn 0.9012 -0.4208 0.1043
vn 0.8595 0.4832 -0.1668
vn 0.3315 0.8167 -0.4725
vn 0.2772 -0.5915 0.7572
vn 0.6960 -0.3716 0.6144
vn 0.2666 -0.8847 0.3825
vn 0.3610 0.9108 -0.2003
vn 0.6971 -0.6240 0.3532
vn 0.7113 0.6737 -0.2005
vn 0.8715 -0.4899 0.0209
vn 0.8724 0.4825 -0.0782
vn 0.7155 0.6978 -0.0336
vn 0.8555 -0.5169 -0.0308
vn 0.9010 0.4330 -0.0275
vn 0.3759 0.9240 0.0705
vn 0.2212 -0.9700 0.1006
vn 0.6417 -0.7532 0.1445
vn 0.1915 -0.9801 0.0528
vn 0.3952 0.8991 0.1880
vn 0.5871 -0.8076 0.0562
vn 0.7496 0.6596 0.0554
vn 0.8607 -0.5060 -0.0559
vn 0.9290 0.3695 -0.0213
vn 0.7931 0.6059 0.0624
vn 0.8659 -0.4933 -0.0824
vn 0.9448 0.3236 -0.0518
vn 0.1853 -0.9788 0.0872
vn 0.5788 -0.8149 0.0285
vn 0.4158 0.7047 -0.5749
vn 0.6080 -0.7940 0.0055
vn 0.8249 0.5652 0.0016
vn 0.8558 -0.5022 -0.1238
vn 0.9497 0.2925 -0.1121
vn 0.8390 0.5335 -0.1069
vn 0.8340 -0.5324 -0.1449
vn 0.9511 0.2696 -0.1505
vn 0.6301 -0.7750 -0.0477
vn 0.6219 -0.7725 -0.1285
vn 0.8468 0.5059 -0.1644
vn 0.8202 -0.5584 -0.1241
vn 0.9562 0.2545 -0.1444
vn 0.8645 0.4847 -0.1330
vn 0.8219 -0.5608 -0.1001
vn 0.9597 0.2412 -0.1444
vn 0.5985 -0.7841 -0.1641
vn 0.5970 -0.7938 -0.1159
vn 0.8825 0.4554 -0.1173
vn 0.8222 -0.5598 -0.1029
vn 0.9542 0.2268 -0.1950
vn 0.8879 0.4129 -0.2031
vn 0.8122 -0.5754 -0.0962
vn 0.9384 0.2261 -0.2612
vn 0.6248 -0.7786 -0.0588
vn 0.6490 -0.7581 -0.0638
vn 0.8704 0.3804 -0.3126
vn 0.7995 -0.5980 -0.0558
vn 0.9178 0.2553 -0.3040
vn 0.8402 0.3947 -0.3720
vn 0.7920 -0.6102 -0.0181
vn 0.8917 0.3102 -0.3295
vn 0.6468 -0.7596 -0.0685
vn 0.6286 -0.7777 -0.0124
vn 0.7899 0.4607 -0.4047
vn 0.7953 -0.6061 -0.0130
vn 0.8620 0.3771 -0.3388
vn 0.7110 0.5654 -0.4181
vn 0.8010 -0.5960 -0.0566
vn 0.8430 0.4362 -0.3148
vn 0.3158 0.7638 -0.5629
vn 0.2932 -0.9533 0.0720
vn 0.5975 -0.8000 0.0546
vn 0.1678 -0.9794 0.1125
vn 0.2074 0.8529 -0.4791
vn 0.5568 -0.8266 0.0815
vn 0.6271 0.6797 -0.3804
vn 0.7960 -0.5779 -0.1799
vn 0.8437 0.4828 -0.2346
vn 0.5688 0.7873 -0.2381
vn 0.7808 -0.4953 -0.3809
vn 0.8651 0.4969 -0.0689
vn 0.1400 0.9517 -0.2731
vn 0.0682 -0.9934 0.0924
vn 0.5306 -0.8467 0.0402
vn 0.0642 -0.9973 -0.0354
vn 0.1415 0.9712 0.1914
vn 0.5447 -0.8312 -0.1116
vn 0.5656 0.8189 0.0975
vn 0.7549 -0.2944 -0.5861
vn 0.9065 0.4056 0.1170
vn 0.6361 0.6116 0.4704
vn 0.7301 -0.0574 -0.6810
vn 0.9464 0.2623 0.1886
vn 0.1976 0.6741 0.7117
vn 0.1675 -0.9298 -0.3277
vn 0.5985 -0.7083 -0.3743
vn 0.3192 -0.6312 -0.7069
vn 0.2687 0.2848 0.9201
vn 0.6376 -0.4218 -0.6446
vn 0.7362 0.3109 0.6012
vn 0.7552 0.1244 -0.6436
vn 0.9636 0.1788 0.1986
vn 0.8033 0.1191 0.5836
vn 0.8331 0.2579 -0.4894
vn 0.9578 0.1396 0.2513
vn 0.3410 -0.0066 0.9400
vn 0.4151 -0.1877 -0.8902
vn 0.6185 -0.1101 -0.7780
vn 0.3830 0.1257 -0.9152
vn 0.4421 -0.2087 0.8724
vn 0.6116 0.1130 -0.7830
vn 0.8214 0.0115 0.5702
vn 0.2088 0.4188 -0.8837
vn 0.6370 0.2928 -0.7131
vn -0.0745 -0.3106 0.9476
vn -0.2638 -0.4721 0.8412
vn -0.0430 0.2078 0.9772
vn -0.1208 -0.1366 0.9832
vn -0.0943 -0.0172 0.9954
vn -0.3399 -0.2894 0.8948
vn -0.3275 -0.0110 0.9448
vn -0.0841 0.0686 0.9941
vn -0.3306 0.2684 0.9048
vn -0.2489 0.4503 0.8575
vt 0.750000 0.750000
vt 0.750000 0.500000
vt 1.000000 0.500000
vt 1.000000 0.750000
vt 0.875000 0.750000
vt 0.875000 1.000000
vt 0.625000 1.000000
vt 0.625000 0.750000
vt 0.875000 0.500000
vt 0.625000 0.500000
vt 0.500000 0.750000
vt 0.500000 0.500000
vt 0.375000 0.750000
vt 0.375000 0.500000
vt 0.541667 0.750000
vt 0.500000 1.000000
vt 0.462674 0.961806
vt 0.505208 0.750000
vt 0.250000 0.750000
vt 0.250000 0.500000
vt 0.000000 0.750000
vt 0.000000 0.500000
vt 0.000000 0.750000
vt 0.000000 0.500000
vt 0.500000 0.500000
vt 0.000000 0.750000
vt 0.458333 0.958333
vt 0.041667 0.958333
vt 0.041667 0.958333
vt 0.375000 1.000000
vt 0.370660 0.995660
vt 0.129340 0.995660
vt 0.130208 0.994792
vt 0.369792 0.994792
vt 0.130208 0.994792
vt 0.369792 0.994792
vt 0.369792 0.994792
vt 0.000000 0.750000
vt 0.375000 0.000000
vt 0.375000 0.125000
vt 0.125000 0.125000
vt 0.125000 0.000000
vt 0.750000 1.000000
vt 1.000000 1.000000
vt 0.500000 0.708333
vt 0.382909 0.704765
vt 0.250000 1.000000
vt 0.687500 0.687500
vt 0.617091 0.704765
vt 0.312500 0.687500
vt 0.000000 1.000000
vt 0.500000 0.000000
vt 0.750000 0.000000
vt 0.750000 0.125000
vt 0.500000 0.125000
vt 0.038194 0.961806
vt 0.000000 1.000000
vt 0.125000 1.000000
vt 0.369792 0.750000
vt 0.367091 0.954765
vt 0.132909 0.954765
vt 0.130208 0.750000
vt 0.375000 0.250000
vt 0.125000 0.250000
vt 0.375000 0.375000
vt 0.125000 0.375000
vt 0.000000 0.250000
vt 0.000000 0.125000
vt 0.000000 0.000000
vt 0.500000 0.250000
vt 0.750000 0.250000
vt 1.000000 0.000000
vt 1.000000 0.125000
vt 1.000000 0.250000
vt 0.750000 0.375000
vt 0.500000 0.375000
vt 0.000000 0.375000
vt 0.375000 0.500000
vt 0.125000 0.500000
vt 0.375000 0.625000
vt 0.125000 0.625000
vt 0.750000 0.500000
vt 1.000000 0.375000
vt 1.000000 0.500000
vt 0.750000 0.625000
vt 0.500000 0.625000
vt 0.000000 0.625000
vt 0.375000 0.750000
vt 0.125000 0.750000
vt 0.125000 0.875000
vt 0.375000 0.875000
vt 0.375000 1.000000
vt 0.500000 0.750000
vt 0.750000 0.750000
vt 1.000000 0.625000
vt 0.750000 0.875000
vt 0.500000 0.875000
vt 0.000000 0.875000
vt 0.125000 0.500000
vt 1.000000 0.875000
vt 0.458333 0.750000
vt 0.041667 0.750000
vt 0.250000 0.750000
vt 0.124132 0.750000
vt 0.437500 0.937500
vt 0.062500 0.937500
vt 0.875868 0.750000
vt 0.750000 0.750000
vt 0.375868 0.787326
vt 0.500000 0.791667
vt 0.624132 0.787327
vt 0.625000 1.000000
vt 0.369117 0.989776
vt 0.130883 0.989776
vt 0.005208 0.750000
vt 0.045235 0.954765
vt 0.454765 0.954765
vt 0.494792 0.750000
vt 0.709105 0.709105
vt 0.750000 0.500000
vt 0.250000 0.500000
vt 0.290895 0.709105
vt 0.619985 0.744985
vt 0.500000 0.750000
vt 0.380015 0.744985
s 1
usemtl wire_056053032
f 3/1/1 2/2/2 62/3/3 63/4/4
f 165/5/5 249/6/6 166/7/7 163/8/8
f 9/3/9 10/4/10 165/5/5 164/9/11
f 162/10/12 163/8/8 7/11/13 6/12/14
f 13/12/15 14/11/16 168/13/17 167/14/18
f 4/15/19 24/16/20 175/17/21 174/18/22
f 163/8/8 166/7/7 11/16/23 7/11/13
f 16/2/24 17/1/25 170/8/26 169/10/27
f 167/14/18 168/13/17 15/19/28 12/20/29
f 18/21/30 19/22/31 172/22/32 171/23/33
f 169/10/27 170/8/26 14/11/16 13/12/15
f 171/23/33 172/22/32 20/24/34 21/23/35
f 1/12/36 4/15/19 174/18/22 173/25/37
f 173/25/37 174/18/22 22/11/38 23/12/39
f 20/24/34 182/22/40 181/26/41 21/23/35
f 174/18/22 175/17/21 25/27/42 22/11/38
f 21/23/35 181/26/41 179/28/43 26/29/44
f 24/16/20 176/30/45 363/31/46 175/17/21
f 363/31/46 370/32/47 178/33/48 177/34/49
f 177/34/49 178/33/48 364/35/50 365/36/51
f 175/17/21 363/31/46 177/34/49 25/27/42
f 365/36/51 364/35/50 180/33/52 186/37/53
f 178/33/48 26/29/44 179/28/43 364/35/50
f 364/35/50 179/28/43 27/29/54 180/33/52
f 186/37/53 180/33/52 366/35/55 367/36/56
f 179/28/43 181/26/41 28/38/57 27/29/54
f 22/11/38 25/27/42 185/27/58 184/11/59
f 181/26/41 182/22/40 29/24/60 28/38/57
f 22/11/38 184/11/59 183/25/61 23/12/39
f 183/25/61 184/11/59 30/11/62 31/12/63
f 28/38/57 29/24/60 190/22/64 189/26/65
f 184/11/59 185/27/58 32/27/66 30/11/62
f 27/29/54 28/38/57 189/26/65 187/28/67
f 25/27/42 177/34/49 365/36/51 185/27/58
f 185/27/58 365/36/51 186/37/53 32/27/66
f 367/36/56 366/35/55 188/33/68 194/37/69
f 180/33/52 27/29/54 187/28/67 366/35/55
f 366/35/55 187/28/67 33/29/70 188/33/68
f 194/37/69 188/33/68 368/35/71 369/36/72
f 187/28/67 189/26/65 34/38/73 33/29/70
f 30/11/62 32/27/66 193/27/74 192/11/75
f 189/26/65 190/22/64 35/24/76 34/38/73
f 30/11/62 192/11/75 191/25/77 31/12/63
f 191/25/77 192/11/75 36/11/78 37/12/79
f 34/38/73 35/24/76 198/22/80 197/26/81
f 192/11/75 193/27/74 38/27/82 36/11/78
f 33/29/70 34/38/73 197/26/81 195/28/83
f 32/27/66 186/37/53 367/36/56 193/27/74
f 193/27/74 367/36/56 194/37/69 38/27/82
f 369/36/72 368/35/71 196/33/84 202/37/85
f 188/33/68 33/29/70 195/28/83 368/35/71
f 368/35/71 195/28/83 39/29/86 196/33/84
f 176/39/45 372/40/87 371/41/88 220/42/89
f 195/28/83 197/26/81 40/38/90 39/29/86
f 36/11/78 38/27/82 201/27/91 200/11/92
f 197/26/81 198/22/80 41/24/93 40/38/90
f 36/11/78 200/11/92 199/25/94 37/12/79
f 199/25/94 200/11/92 42/11/95 43/12/96
f 40/38/90 41/24/93 204/22/97 203/23/98
f 200/11/92 201/27/91 44/27/99 42/11/95
f 42/11/95 44/27/99 207/27/100 206/11/101
f 38/27/82 194/37/69 369/36/72 201/27/91
f 201/27/91 369/36/72 202/37/85 44/27/99
f 203/23/98 204/22/97 45/24/102 46/23/103
f 42/11/95 206/11/101 205/25/104 43/12/96
f 205/25/104 206/11/101 47/11/105 48/12/106
f 50/12/107 51/11/108 209/11/109 208/25/110
f 206/11/101 207/27/100 49/27/111 47/11/105
f 64/43/112 3/1/1 63/4/4 65/44/113
f 208/25/110 209/11/109 52/11/114 53/12/115
f 52/11/114 211/11/116 210/25/117 53/12/115
f 210/25/117 211/11/116 54/11/118 55/12/119
f 56/23/120 57/24/121 213/22/122 212/23/123
f 212/23/123 213/22/122 58/24/124 59/23/125
f 54/11/118 215/11/126 214/25/127 55/12/119
f 214/25/127 215/11/126 60/11/128 61/12/129
f 24/16/20 4/15/19 3/1/1 64/43/112
f 67/12/130 68/45/131 217/46/132 216/14/133
f 8/19/134 73/21/135 72/22/136 5/20/137
f 11/16/23 74/47/138 8/19/134 7/11/13
f 70/2/139 71/48/140 219/49/141 218/10/142
f 216/14/133 217/46/132 69/50/143 66/20/144
f 74/47/138 75/51/145 73/21/135 8/19/134
f 218/10/142 219/49/141 68/45/131 67/12/130
f 77/23/146 78/24/147 223/22/148 222/23/149
f 24/52/20 64/53/112 234/54/150 232/55/151
f 18/21/30 171/23/33 221/56/152 76/57/153
f 220/58/89 76/57/153 221/56/152 370/32/47
f 370/32/47 221/56/152 26/29/44 178/33/48
f 221/56/152 171/23/33 21/23/35 26/29/44
f 202/37/85 196/33/84 379/35/154 380/36/155
f 222/23/149 223/22/148 79/24/156 80/23/157
f 79/24/156 225/22/158 224/23/159 80/23/157
f 224/23/159 225/22/158 57/24/121 56/23/120
f 58/24/124 227/22/160 226/23/161 59/23/125
f 226/23/161 227/22/160 81/24/162 82/23/163
f 60/11/128 229/11/164 228/25/165 61/12/129
f 228/25/165 229/11/164 83/11/166 84/12/167
f 256/59/168 258/60/169 257/61/170 254/62/171
f 371/41/88 372/40/87 233/63/172 230/64/173
f 230/64/173 233/63/172 374/65/174 373/66/175
f 371/41/88 230/64/173 85/67/176 231/68/177
f 220/42/89 371/41/88 231/68/177 76/69/153
f 176/39/45 24/52/20 232/55/151 372/40/87
f 372/40/87 232/55/151 86/70/178 233/63/172
f 232/55/151 234/54/150 87/71/179 86/70/178
f 64/53/112 65/72/113 235/73/180 234/54/150
f 234/54/150 235/73/180 88/74/181 87/71/179
f 86/70/178 87/71/179 240/75/182 238/76/183
f 85/67/176 230/64/173 373/66/175 236/77/184
f 373/66/175 374/65/174 239/78/185 237/79/186
f 237/79/186 239/78/185 376/80/187 375/81/188
f 236/77/184 373/66/175 237/79/186 89/24/189
f 233/63/172 86/70/178 238/76/183 374/65/174
f 374/65/174 238/76/183 90/25/190 239/78/185
f 238/76/183 240/75/182 91/82/191 90/25/190
f 87/71/179 88/74/181 241/83/192 240/75/182
f 240/75/182 241/83/192 92/84/193 91/82/191
f 90/25/190 91/82/191 246/85/194 244/86/195
f 89/24/189 237/79/186 375/81/188 242/87/196
f 375/81/188 376/80/187 245/88/197 243/89/198
f 377/90/199 378/91/200 166/92/7 249/58/6
f 242/87/196 375/81/188 243/89/198 93/21/201
f 239/78/185 90/25/190 244/86/195 376/80/187
f 376/80/187 244/86/195 94/93/202 245/88/197
f 244/86/195 246/85/194 95/94/203 94/93/202
f 91/82/191 92/84/193 247/95/204 246/85/194
f 246/85/194 247/95/204 96/4/205 95/94/203
f 94/93/202 95/94/203 251/96/206 250/97/207
f 93/21/201 243/89/198 377/90/199 248/98/208
f 255/14/209 256/59/168 254/62/171 253/99/210
f 243/89/198 245/88/197 378/91/200 377/90/199
f 248/98/208 377/90/199 249/58/6 97/51/211
f 245/88/197 94/93/202 250/97/207 378/91/200
f 378/91/200 250/97/207 11/16/23 166/92/7
f 250/97/207 251/96/206 74/43/138 11/16/23
f 95/94/203 96/4/205 252/100/212 251/96/206
f 251/96/206 252/100/212 75/44/145 74/43/138
f 100/12/213 101/101/214 256/59/168 255/14/209
f 253/99/210 254/62/171 99/102/215 98/24/216
f 104/20/217 105/103/218 260/104/219 259/99/220
f 101/101/214 103/105/221 258/60/169 256/59/168
f 254/62/171 257/61/170 102/106/222 99/102/215
f 88/47/181 235/58/180 260/104/219 105/103/218
f 72/3/136 73/4/135 262/107/223 261/9/224
f 259/99/220 260/104/219 63/21/4 62/22/3
f 12/20/29 15/19/28 266/89/225 265/99/226
f 261/9/224 262/107/223 107/108/227 106/2/228
f 92/16/193 241/30/192 263/109/229 108/110/230
f 260/104/219 235/58/180 65/51/113 63/21/4
f 263/109/229 241/30/192 88/47/181 105/103/218
f 92/16/193 108/110/230 264/111/231 247/112/204
f 73/4/135 75/44/145 252/6/212 262/107/223
f 247/112/204 264/111/231 107/108/227 96/43/205
f 10/4/10 97/44/211 249/6/6 165/5/5
f 262/107/223 252/6/212 96/43/205 107/108/227
f 15/19/28 93/47/201 248/58/208 266/89/225
f 18/4/30 268/5/232 267/9/233 19/3/31
f 265/99/226 266/89/225 10/21/10 9/22/9
f 45/24/102 275/22/234 274/26/235 46/23/103
f 267/9/233 268/5/232 17/1/25 16/2/24
f 14/11/16 89/16/189 242/92/196 168/13/17
f 266/89/225 248/58/208 97/51/211 10/21/10
f 17/1/25 85/43/176 236/7/184 170/8/26
f 168/13/17 242/92/196 93/47/201 15/19/28
f 18/4/30 76/44/153 231/6/177 268/5/232
f 170/8/26 236/7/184 89/16/189 14/11/16
f 39/29/86 40/38/90 203/23/98 269/28/236
f 268/5/232 231/6/177 85/43/176 17/1/25
f 380/36/155 379/35/154 270/33/237 271/37/238
f 196/33/84 39/29/86 269/28/236 379/35/154
f 379/35/154 269/28/236 109/29/239 270/33/237
f 271/37/238 270/33/237 381/35/240 382/36/241
f 269/28/236 203/23/98 46/23/103 109/29/239
f 46/23/103 274/26/235 272/28/242 109/29/239
f 44/27/99 202/37/85 380/36/155 207/27/100
f 207/27/100 380/36/155 271/37/238 49/27/111
f 382/36/241 381/35/240 273/33/243 279/37/244
f 270/33/237 109/29/239 272/28/242 381/35/240
f 381/35/240 272/28/242 110/29/245 273/33/243
f 279/37/244 273/33/243 383/35/246 384/36/247
f 272/28/242 274/26/235 111/38/248 110/29/245
f 47/11/105 49/27/111 278/27/249 277/11/250
f 274/26/235 275/22/234 112/24/251 111/38/248
f 47/11/105 277/11/250 276/25/252 48/12/106
f 276/25/252 277/11/250 113/11/253 114/12/254
f 111/38/248 112/24/251 283/22/255 282/26/256
f 277/11/250 278/27/249 115/27/257 113/11/253
f 110/29/245 111/38/248 282/26/256 280/28/258
f 49/27/111 271/37/238 382/36/241 278/27/249
f 278/27/249 382/36/241 279/37/244 115/27/257
f 384/36/247 383/35/246 281/33/259 287/37/260
f 273/33/243 110/29/245 280/28/258 383/35/246
f 383/35/246 280/28/258 116/29/261 281/33/259
f 287/37/260 281/33/259 385/35/262 386/36/263
f 280/28/258 282/26/256 117/38/264 116/29/261
f 113/11/253 115/27/257 286/27/265 285/11/266
f 282/26/256 283/22/255 118/24/267 117/38/264
f 113/11/253 285/11/266 284/25/268 114/12/254
f 284/25/268 285/11/266 119/11/269 120/12/270
f 117/38/264 118/24/267 291/22/271 290/26/272
f 285/11/266 286/27/265 121/27/273 119/11/269
f 116/29/261 117/38/264 290/26/272 288/28/274
f 115/27/257 279/37/244 384/36/247 286/27/265
f 286/27/265 384/36/247 287/37/260 121/27/273
f 386/36/263 385/35/262 289/33/275 295/37/276
f 281/33/259 116/29/261 288/28/274 385/35/262
f 385/35/262 288/28/274 122/29/277 289/33/275
f 295/37/276 289/33/275 387/35/278 388/36/279
f 288/28/274 290/26/272 123/38/280 122/29/277
f 119/11/269 121/27/273 294/27/281 293/11/282
f 290/26/272 291/22/271 124/24/283 123/38/280
f 119/11/269 293/11/282 292/25/284 120/12/270
f 292/25/284 293/11/282 125/11/285 126/12/286
f 123/38/280 124/24/283 299/22/287 298/26/288
f 293/11/282 294/27/281 127/27/289 125/11/285
f 122/29/277 123/38/280 298/26/288 296/28/290
f 121/27/273 287/37/260 386/36/263 294/27/281
f 294/27/281 386/36/263 295/37/276 127/27/289
f 388/36/279 387/35/278 297/33/291 303/37/292
f 289/33/275 122/29/277 296/28/290 387/35/278
f 387/35/278 296/28/290 128/29/293 297/33/291
f 303/37/292 297/33/291 389/35/294 390/36/295
f 296/28/290 298/26/288 77/23/146 128/29/293
f 125/11/285 127/27/289 302/27/296 301/11/297
f 298/26/288 299/22/287 78/24/147 77/23/146
f 125/11/285 301/11/297 300/25/298 126/12/286
f 300/25/298 301/11/297 51/11/108 50/12/107
f 81/24/162 323/22/299 322/26/300 82/23/163
f 301/11/297 302/27/296 129/27/301 51/11/108
f 77/23/146 222/23/149 304/28/302 128/29/293
f 127/27/289 295/37/276 388/36/279 302/27/296
f 302/27/296 388/36/279 303/37/292 129/27/301
f 390/36/295 389/35/294 305/33/303 307/37/304
f 297/33/291 128/29/293 304/28/302 389/35/294
f 389/35/294 304/28/302 130/29/305 305/33/303
f 307/37/304 305/33/303 391/35/306 392/36/307
f 304/28/302 222/23/149 80/23/157 130/29/305
f 51/11/108 129/27/301 306/27/308 209/11/109
f 209/11/109 306/27/308 131/27/309 52/11/114
f 80/23/157 224/23/159 308/28/310 130/29/305
f 129/27/301 303/37/292 390/36/295 306/27/308
f 306/27/308 390/36/295 307/37/304 131/27/309
f 392/36/307 391/35/306 309/33/311 311/37/312
f 305/33/303 130/29/305 308/28/310 391/35/306
f 391/35/306 308/28/310 132/29/313 309/33/311
f 311/37/312 309/33/311 393/35/314 394/36/315
f 308/28/310 224/23/159 56/23/120 132/29/313
f 52/11/114 131/27/309 310/27/316 211/11/116
f 211/11/116 310/27/316 133/27/317 54/11/118
f 56/23/120 212/23/123 312/28/318 132/29/313
f 131/27/309 307/37/304 392/36/307 310/27/316
f 310/27/316 392/36/307 311/37/312 133/27/317
f 394/36/315 393/35/314 313/33/319 315/37/320
f 309/33/311 132/29/313 312/28/318 393/35/314
f 393/35/314 312/28/318 134/29/321 313/33/319
f 315/37/320 313/33/319 395/35/322 396/36/323
f 312/28/318 212/23/123 59/23/125 134/29/321
f 54/11/118 133/27/317 314/27/324 215/11/126
f 215/11/126 314/27/324 135/27/325 60/11/128
f 59/23/125 226/23/161 316/28/326 134/29/321
f 133/27/317 311/37/312 394/36/315 314/27/324
f 314/27/324 394/36/315 315/37/320 135/27/325
f 396/36/323 395/35/322 317/33/327 319/37/328
f 313/33/319 134/29/321 316/28/326 395/35/322
f 395/35/322 316/28/326 136/29/329 317/33/327
f 319/37/328 317/33/327 397/35/330 398/36/331
f 316/28/326 226/23/161 82/23/163 136/29/329
f 60/11/128 135/27/325 318/27/332 229/11/164
f 229/11/164 318/27/332 137/27/333 83/11/166
f 82/23/163 322/26/300 320/28/334 136/29/329
f 135/27/325 315/37/320 396/36/323 318/27/332
f 318/27/332 396/36/323 319/37/328 137/27/333
f 398/36/331 397/35/330 321/33/335 327/37/336
f 317/33/327 136/29/329 320/28/334 397/35/330
f 397/35/330 320/28/334 138/29/337 321/33/335
f 327/37/336 321/33/335 399/35/338 400/36/339
f 320/28/334 322/26/300 139/38/340 138/29/337
f 83/11/166 137/27/333 326/27/341 325/11/342
f 322/26/300 323/22/299 140/24/343 139/38/340
f 83/11/166 325/11/342 324/25/344 84/12/167
f 324/25/344 325/11/342 141/11/345 142/12/346
f 139/38/340 140/24/343 331/22/347 330/26/348
f 325/11/342 326/27/341 143/27/349 141/11/345
f 138/29/337 139/38/340 330/26/348 328/28/350
f 137/27/333 319/37/328 398/36/331 326/27/341
f 326/27/341 398/36/331 327/37/336 143/27/349
f 400/36/339 399/35/338 329/33/351 335/37/352
f 321/33/335 138/29/337 328/28/350 399/35/338
f 399/35/338 328/28/350 144/29/353 329/33/351
f 335/37/352 329/33/351 401/35/354 402/36/355
f 328/28/350 330/26/348 145/38/356 144/29/353
f 141/11/345 143/27/349 334/27/357 333/11/358
f 330/26/348 331/22/347 146/24/359 145/38/356
f 141/11/345 333/11/358 332/25/360 142/12/346
f 332/25/360 333/11/358 147/11/361 148/12/362
f 145/38/356 146/24/359 339/22/363 338/26/364
f 333/11/358 334/27/357 149/27/365 147/11/361
f 144/29/353 145/38/356 338/26/364 336/28/366
f 143/27/349 327/37/336 400/36/339 334/27/357
f 334/27/357 400/36/339 335/37/352 149/27/365
f 402/36/355 401/35/354 337/33/367 343/37/368
f 329/33/351 144/29/353 336/28/366 401/35/354
f 401/35/354 336/28/366 150/29/369 337/33/367
f 343/37/368 337/33/367 403/35/370 404/36/371
f 336/28/366 338/26/364 151/38/372 150/29/369
f 147/11/361 149/27/365 342/27/373 341/11/374
f 338/26/364 339/22/363 152/24/375 151/38/372
f 147/11/361 341/11/374 340/25/376 148/12/362
f 340/25/376 341/11/374 153/11/377 154/12/378
f 151/38/372 152/24/375 347/22/379 346/26/380
f 341/11/374 342/27/373 155/27/381 153/11/377
f 150/29/369 151/38/372 346/26/380 344/28/382
f 149/27/365 335/37/352 402/36/355 342/27/373
f 342/27/373 402/36/355 343/37/368 155/27/381
f 404/36/371 403/35/370 345/33/383 351/37/384
f 337/33/367 150/29/369 344/28/382 403/35/370
f 403/35/370 344/28/382 156/29/385 345/33/383
f 406/113/386 405/114/387 257/61/170 258/60/169
f 344/28/382 346/26/380 157/38/388 156/29/385
f 153/11/377 155/27/381 350/27/389 349/11/390
f 346/26/380 347/22/379 158/24/391 157/38/388
f 153/11/377 349/11/390 348/25/392 154/12/378
f 348/25/392 349/11/390 159/11/393 160/12/394
f 157/38/388 158/24/391 354/22/395 353/115/396
f 349/11/390 350/27/389 161/27/397 159/11/393
f 156/29/385 157/38/388 353/115/396 352/116/398
f 155/27/381 343/37/368 404/36/371 350/27/389
f 350/27/389 404/36/371 351/37/384 161/27/397
f 3/1/1 4/15/19 1/12/36 2/2/2
f 345/33/383 156/29/385 352/116/398 405/114/387
f 405/114/387 352/116/398 102/106/222 257/61/170
f 351/37/384 345/33/383 405/114/387 406/113/386
f 159/11/393 161/27/397 357/117/399 356/118/400
f 352/116/398 353/115/396 99/102/215 102/106/222
f 353/115/396 354/22/395 98/24/216 99/102/215
f 159/11/393 356/118/400 355/25/401 160/12/394
f 355/25/401 356/118/400 101/101/214 100/12/213
f 106/2/228 107/108/227 359/119/402 358/120/403
f 356/118/400 357/117/399 103/105/221 101/101/214
f 7/11/13 8/19/134 5/20/137 6/12/14
f 161/27/397 351/37/384 406/113/386 357/117/399
f 357/117/399 406/113/386 258/60/169 103/105/221
f 358/120/403 359/119/402 71/48/404 70/2/405
f 104/20/217 362/121/406 361/122/407 105/103/218
f 107/108/227 264/111/231 407/123/408 359/119/402
f 264/111/231 108/110/230 360/124/409 407/123/408
f 407/123/408 360/124/409 68/45/410 219/49/411
f 359/119/402 407/123/408 219/49/411 71/48/404
f 108/110/230 263/109/229 408/125/412 360/124/409
f 263/109/229 105/103/218 361/122/407 408/125/412
f 408/125/412 361/122/407 69/50/413 217/46/414
f 360/124/409 408/125/412 217/46/414 68/45/410
f 361/122/407 362/121/406 66/20/415 69/50/413
f 164/9/11 165/5/5 163/8/8 162/10/12
f 176/30/45 220/58/89 370/32/47 363/31/46
f 409/1/416 445/4/417 62/3/3 2/2/2
f 519/5/418 518/8/419 520/7/420 581/6/421
f 9/3/9 164/9/11 519/5/418 413/4/422
f 162/10/12 6/12/14 411/11/423 518/8/419
f 13/12/15 167/14/18 521/13/424 415/11/425
f 410/15/426 524/18/427 525/17/428 421/16/429
f 518/8/419 411/11/423 414/16/430 520/7/420
f 16/2/24 169/10/27 522/8/431 417/1/432
f 167/14/18 12/20/29 416/19/433 521/13/424
f 418/21/434 523/23/435 172/22/32 19/22/31
f 169/10/27 13/12/15 415/11/425 522/8/431
f 523/23/435 419/23/436 20/24/34 172/22/32
f 1/12/36 173/25/37 524/18/427 410/15/426
f 173/25/37 23/12/39 420/11/437 524/18/427
f 20/24/34 419/23/436 531/26/438 182/22/40
f 524/18/427 420/11/437 422/27/439 525/17/428
f 419/23/436 423/29/440 529/28/441 531/26/438
f 421/16/429 525/17/428 669/31/442 526/30/443
f 669/31/442 527/34/444 528/33/445 676/32/446
f 527/34/444 671/36/447 670/35/448 528/33/445
f 525/17/428 422/27/439 527/34/444 669/31/442
f 671/36/447 534/37/449 530/33/450 670/35/448
f 528/33/445 670/35/448 529/28/441 423/29/440
f 670/35/448 530/33/450 424/29/451 529/28/441
f 534/37/449 673/36/452 672/35/453 530/33/450
f 529/28/441 424/29/451 425/38/454 531/26/438
f 420/11/437 532/11/455 533/27/456 422/27/439
f 531/26/438 425/38/454 29/24/60 182/22/40
f 420/11/437 23/12/39 183/25/61 532/11/455
f 183/25/61 31/12/63 426/11/457 532/11/455
f 425/38/454 537/26/458 190/22/64 29/24/60
f 532/11/455 426/11/457 427/27/459 533/27/456
f 424/29/451 535/28/460 537/26/458 425/38/454
f 422/27/439 533/27/456 671/36/447 527/34/444
f 533/27/456 427/27/459 534/37/449 671/36/447
f 673/36/452 540/37/461 536/33/462 672/35/453
f 530/33/450 672/35/453 535/28/460 424/29/451
f 672/35/453 536/33/462 428/29/463 535/28/460
f 540/37/461 675/36/464 674/35/465 536/33/462
f 535/28/460 428/29/463 429/38/466 537/26/458
f 426/11/457 538/11/467 539/27/468 427/27/459
f 537/26/458 429/38/466 35/24/76 190/22/64
f 426/11/457 31/12/63 191/25/77 538/11/467
f 191/25/77 37/12/79 430/11/469 538/11/467
f 429/38/466 543/26/470 198/22/80 35/24/76
f 538/11/467 430/11/469 431/27/471 539/27/468
f 428/29/463 541/28/472 543/26/470 429/38/466
f 427/27/459 539/27/468 673/36/452 534/37/449
f 539/27/468 431/27/471 540/37/461 673/36/452
f 675/36/464 546/37/473 542/33/474 674/35/465
f 536/33/462 674/35/465 541/28/472 428/29/463
f 674/35/465 542/33/474 432/29/475 541/28/472
f 526/39/443 556/42/476 677/41/477 678/40/478
f 541/28/472 432/29/475 433/38/479 543/26/470
f 430/11/469 544/11/480 545/27/481 431/27/471
f 543/26/470 433/38/479 41/24/93 198/22/80
f 430/11/469 37/12/79 199/25/94 544/11/480
f 199/25/94 43/12/96 434/11/482 544/11/480
f 433/38/479 547/23/483 204/22/97 41/24/93
f 544/11/480 434/11/482 435/27/484 545/27/481
f 434/11/482 548/11/485 549/27/486 435/27/484
f 431/27/471 545/27/481 675/36/464 540/37/461
f 545/27/481 435/27/484 546/37/473 675/36/464
f 547/23/483 436/23/487 45/24/102 204/22/97
f 434/11/482 43/12/96 205/25/104 548/11/485
f 205/25/104 48/12/106 437/11/488 548/11/485
f 50/12/107 208/25/110 550/11/489 439/11/490
f 548/11/485 437/11/488 438/27/491 549/27/486
f 446/43/492 447/44/493 445/4/417 409/1/416
f 208/25/110 53/12/115 440/11/494 550/11/489
f 440/11/494 53/12/115 210/25/117 551/11/495
f 210/25/117 55/12/119 441/11/496 551/11/495
f 442/23/497 552/23/498 213/22/122 57/24/121
f 552/23/498 443/23/499 58/24/124 213/22/122
f 441/11/496 55/12/119 214/25/127 553/11/500
f 214/25/127 61/12/129 444/11/501 553/11/500
f 421/16/429 446/43/492 409/1/416 410/15/426
f 67/12/130 216/14/133 554/46/502 448/45/503
f 412/19/504 5/20/137 72/22/136 451/21/505
f 414/16/430 411/11/423 412/19/504 452/47/506
f 70/2/139 218/10/142 555/49/507 450/48/508
f 216/14/133 66/20/144 449/50/509 554/46/502
f 452/47/506 412/19/504 451/21/505 453/51/510
f 218/10/142 67/12/130 448/45/503 555/49/507
f 455/23/511 558/23/512 223/22/148 78/24/147
f 421/52/429 564/55/513 566/54/514 446/53/492
f 418/21/434 454/57/515 557/56/516 523/23/435
f 556/58/476 676/32/446 557/56/516 454/57/515
f 676/32/446 528/33/445 423/29/440 557/56/516
f 557/56/516 423/29/440 419/23/436 523/23/435
f 546/37/473 686/36/517 685/35/518 542/33/474
f 558/23/512 456/23/519 79/24/156 223/22/148
f 79/24/156 456/23/519 559/23/520 225/22/158
f 559/23/520 442/23/497 57/24/121 225/22/158
f 58/24/124 443/23/499 560/23/521 227/22/160
f 560/23/521 457/23/522 81/24/162 227/22/160
f 444/11/501 61/12/129 228/25/165 561/11/523
f 228/25/165 84/12/167 458/11/524 561/11/523
f 586/59/525 585/62/526 587/61/527 588/60/528
f 677/41/477 562/64/529 565/63/530 678/40/478
f 562/64/529 679/66/531 680/65/532 565/63/530
f 677/41/477 563/68/533 459/67/534 562/64/529
f 556/42/476 454/69/515 563/68/533 677/41/477
f 526/39/443 678/40/478 564/55/513 421/52/429
f 678/40/478 565/63/530 460/70/535 564/55/513
f 564/55/513 460/70/535 461/71/536 566/54/514
f 446/53/492 566/54/514 567/73/537 447/72/493
f 566/54/514 461/71/536 462/74/538 567/73/537
f 460/70/535 570/76/539 572/75/540 461/71/536
f 459/67/534 568/77/541 679/66/531 562/64/529
f 679/66/531 569/79/542 571/78/543 680/65/532
f 569/79/542 681/81/544 682/80/545 571/78/543
f 568/77/541 463/24/546 569/79/542 679/66/531
f 565/63/530 680/65/532 570/76/539 460/70/535
f 680/65/532 571/78/543 464/25/547 570/76/539
f 570/76/539 464/25/547 465/82/548 572/75/540
f 461/71/536 572/75/540 573/83/549 462/74/538
f 572/75/540 465/82/548 466/84/550 573/83/549
f 464/25/547 576/86/551 578/85/552 465/82/548
f 463/24/546 574/87/553 681/81/544 569/79/542
f 681/81/544 575/89/554 577/88/555 682/80/545
f 683/90/556 581/58/421 520/92/420 684/91/557
f 574/87/553 467/21/558 575/89/554 681/81/544
f 571/78/543 682/80/545 576/86/551 464/25/547
f 682/80/545 577/88/555 468/93/559 576/86/551
f 576/86/551 468/93/559 469/94/560 578/85/552
f 465/82/548 578/85/552 579/95/561 466/84/550
f 578/85/552 469/94/560 470/4/562 579/95/561
f 468/93/559 582/97/563 583/96/564 469/94/560
f 467/21/558 580/98/565 683/90/556 575/89/554
f 255/14/209 253/99/210 585/62/526 586/59/525
f 575/89/554 683/90/556 684/91/557 577/88/555
f 580/98/565 471/51/566 581/58/421 683/90/556
f 577/88/555 684/91/557 582/97/563 468/93/559
f 684/91/557 520/92/420 414/16/430 582/97/563
f 582/97/563 414/16/430 452/43/506 583/96/564
f 469/94/560 583/96/564 584/100/567 470/4/562
f 583/96/564 452/43/506 453/44/510 584/100/567
f 100/12/213 255/14/209 586/59/525 473/101/568
f 253/99/210 98/24/216 472/102/569 585/62/526
f 104/20/217 259/99/220 589/104/570 476/103/571
f 473/101/568 586/59/525 588/60/528 475/105/572
f 585/62/526 472/102/569 474/106/573 587/61/527
f 462/47/538 476/103/571 589/104/570 567/58/537
f 72/3/136 261/9/224 590/107/574 451/4/505
f 259/99/220 62/22/3 445/21/417 589/104/570
f 12/20/29 265/99/226 593/89/575 416/19/433
f 261/9/224 106/2/228 477/108/576 590/107/574
f 466/16/550 478/110/577 591/109/578 573/30/549
f 589/104/570 445/21/417 447/51/493 567/58/537
f 591/109/578 476/103/571 462/47/538 573/30/549
f 466/16/550 579/112/561 592/111/579 478/110/577
f 451/4/505 590/107/574 584/6/567 453/44/510
f 579/112/561 470/43/562 477/108/576 592/111/579
f 413/4/422 519/5/418 581/6/421 471/44/566
f 590/107/574 477/108/576 470/43/562 584/6/567
f 416/19/433 593/89/575 580/58/565 467/47/558
f 418/4/434 19/3/31 267/9/233 594/5/580
f 265/99/226 9/22/9 413/21/422 593/89/575
f 45/24/102 436/23/487 600/26/581 275/22/234
f 267/9/233 16/2/24 417/1/432 594/5/580
f 415/11/425 521/13/424 574/92/553 463/16/546
f 593/89/575 413/21/422 471/51/566 580/58/565
f 417/1/432 522/8/431 568/7/541 459/43/534
f 521/13/424 416/19/433 467/47/558 574/92/553
f 418/4/434 594/5/580 563/6/533 454/44/515
f 522/8/431 415/11/425 463/16/546 568/7/541
f 432/29/475 595/28/582 547/23/483 433/38/479
f 594/5/580 417/1/432 459/43/534 563/6/533
f 686/36/517 597/37/583 596/33/584 685/35/518
f 542/33/474 685/35/518 595/28/582 432/29/475
f 685/35/518 596/33/584 479/29/585 595/28/582
f 597/37/583 688/36/586 687/35/587 596/33/584
f 595/28/582 479/29/585 436/23/487 547/23/483
f 436/23/487 479/29/585 598/28/588 600/26/581
f 435/27/484 549/27/486 686/36/517 546/37/473
f 549/27/486 438/27/491 597/37/583 686/36/517
f 688/36/586 603/37/589 599/33/590 687/35/587
f 596/33/584 687/35/587 598/28/588 479/29/585
f 687/35/587 599/33/590 480/29/591 598/28/588
f 603/37/589 690/36/592 689/35/593 599/33/590
f 598/28/588 480/29/591 481/38/594 600/26/581
f 437/11/488 601/11/595 602/27/596 438/27/491
f 600/26/581 481/38/594 112/24/251 275/22/234
f 437/11/488 48/12/106 276/25/252 601/11/595
f 276/25/252 114/12/254 482/11/597 601/11/595
f 481/38/594 606/26/598 283/22/255 112/24/251
f 601/11/595 482/11/597 483/27/599 602/27/596
f 480/29/591 604/28/600 606/26/598 481/38/594
f 438/27/491 602/27/596 688/36/586 597/37/583
f 602/27/596 483/27/599 603/37/589 688/36/586
f 690/36/592 609/37/601 605/33/602 689/35/593
f 599/33/590 689/35/593 604/28/600 480/29/591
f 689/35/593 605/33/602 484/29/603 604/28/600
f 609/37/601 692/36/604 691/35/605 605/33/602
f 604/28/600 484/29/603 485/38/606 606/26/598
f 482/11/597 607/11/607 608/27/608 483/27/599
f 606/26/598 485/38/606 118/24/267 283/22/255
f 482/11/597 114/12/254 284/25/268 607/11/607
f 284/25/268 120/12/270 486/11/609 607/11/607
f 485/38/606 612/26/610 291/22/271 118/24/267
f 607/11/607 486/11/609 487/27/611 608/27/608
f 484/29/603 610/28/612 612/26/610 485/38/606
f 483/27/599 608/27/608 690/36/592 603/37/589
f 608/27/608 487/27/611 609/37/601 690/36/592
f 692/36/604 615/37/613 611/33/614 691/35/605
f 605/33/602 691/35/605 610/28/612 484/29/603
f 691/35/605 611/33/614 488/29/615 610/28/612
f 615/37/613 694/36/616 693/35/617 611/33/614
f 610/28/612 488/29/615 489/38/618 612/26/610
f 486/11/609 613/11/619 614/27/620 487/27/611
f 612/26/610 489/38/618 124/24/283 291/22/271
f 486/11/609 120/12/270 292/25/284 613/11/619
f 292/25/284 126/12/286 490/11/621 613/11/619
f 489/38/618 618/26/622 299/22/287 124/24/283
f 613/11/619 490/11/621 491/27/623 614/27/620
f 488/29/615 616/28/624 618/26/622 489/38/618
f 487/27/611 614/27/620 692/36/604 609/37/601
f 614/27/620 491/27/623 615/37/613 692/36/604
f 694/36/616 621/37/625 617/33/626 693/35/617
f 611/33/614 693/35/617 616/28/624 488/29/615
f 693/35/617 617/33/626 492/29/627 616/28/624
f 621/37/625 696/36/628 695/35/629 617/33/626
f 616/28/624 492/29/627 455/23/511 618/26/622
f 490/11/621 619/11/630 620/27/631 491/27/623
f 618/26/622 455/23/511 78/24/147 299/22/287
f 490/11/621 126/12/286 300/25/298 619/11/630
f 300/25/298 50/12/107 439/11/490 619/11/630
f 81/24/162 457/23/522 640/26/632 323/22/299
f 619/11/630 439/11/490 493/27/633 620/27/631
f 455/23/511 492/29/627 622/28/634 558/23/512
f 491/27/623 620/27/631 694/36/616 615/37/613
f 620/27/631 493/27/633 621/37/625 694/36/616
f 696/36/628 625/37/635 623/33/636 695/35/629
f 617/33/626 695/35/629 622/28/634 492/29/627
f 695/35/629 623/33/636 494/29/637 622/28/634
f 625/37/635 698/36/638 697/35/639 623/33/636
f 622/28/634 494/29/637 456/23/519 558/23/512
f 439/11/490 550/11/489 624/27/640 493/27/633
f 550/11/489 440/11/494 495/27/641 624/27/640
f 456/23/519 494/29/637 626/28/642 559/23/520
f 493/27/633 624/27/640 696/36/628 621/37/625
f 624/27/640 495/27/641 625/37/635 696/36/628
f 698/36/638 629/37/643 627/33/644 697/35/639
f 623/33/636 697/35/639 626/28/642 494/29/637
f 697/35/639 627/33/644 496/29/645 626/28/642
f 629/37/643 700/36/646 699/35/647 627/33/644
f 626/28/642 496/29/645 442/23/497 559/23/520
f 440/11/494 551/11/495 628/27/648 495/27/641
f 551/11/495 441/11/496 497/27/649 628/27/648
f 442/23/497 496/29/645 630/28/650 552/23/498
f 495/27/641 628/27/648 698/36/638 625/37/635
f 628/27/648 497/27/649 629/37/643 698/36/638
f 700/36/646 633/37/651 631/33/652 699/35/647
f 627/33/644 699/35/647 630/28/650 496/29/645
f 699/35/647 631/33/652 498/29/653 630/28/650
f 633/37/651 702/36/654 701/35/655 631/33/652
f 630/28/650 498/29/653 443/23/499 552/23/498
f 441/11/496 553/11/500 632/27/656 497/27/649
f 553/11/500 444/11/501 499/27/657 632/27/656
f 443/23/499 498/29/653 634/28/658 560/23/521
f 497/27/649 632/27/656 700/36/646 629/37/643
f 632/27/656 499/27/657 633/37/651 700/36/646
f 702/36/654 637/37/659 635/33/660 701/35/655
f 631/33/652 701/35/655 634/28/658 498/29/653
f 701/35/655 635/33/660 500/29/661 634/28/658
f 637/37/659 704/36/662 703/35/663 635/33/660
f 634/28/658 500/29/661 457/23/522 560/23/521
f 444/11/501 561/11/523 636/27/664 499/27/657
f 561/11/523 458/11/524 501/27/665 636/27/664
f 457/23/522 500/29/661 638/28/666 640/26/632
f 499/27/657 636/27/664 702/36/654 633/37/651
f 636/27/664 501/27/665 637/37/659 702/36/654
f 704/36/662 643/37/667 639/33/668 703/35/663
f 635/33/660 703/35/663 638/28/666 500/29/661
f 703/35/663 639/33/668 502/29/669 638/28/666
f 643/37/667 706/36/670 705/35/671 639/33/668
f 638/28/666 502/29/669 503/38/672 640/26/632
f 458/11/524 641/11/673 642/27/674 501/27/665
f 640/26/632 503/38/672 140/24/343 323/22/299
f 458/11/524 84/12/167 324/25/344 641/11/673
f 324/25/344 142/12/346 504/11/675 641/11/673
f 503/38/672 646/26/676 331/22/347 140/24/343
f 641/11/673 504/11/675 505/27/677 642/27/674
f 502/29/669 644/28/678 646/26/676 503/38/672
f 501/27/665 642/27/674 704/36/662 637/37/659
f 642/27/674 505/27/677 643/37/667 704/36/662
f 706/36/670 649/37/679 645/33/680 705/35/671
f 639/33/668 705/35/671 644/28/678 502/29/669
f 705/35/671 645/33/680 506/29/681 644/28/678
f 649/37/679 708/36/682 707/35/683 645/33/680
f 644/28/678 506/29/681 507/38/684 646/26/676
f 504/11/675 647/11/685 648/27/686 505/27/677
f 646/26/676 507/38/684 146/24/359 331/22/347
f 504/11/675 142/12/346 332/25/360 647/11/685
f 332/25/360 148/12/362 508/11/687 647/11/685
f 507/38/684 652/26/688 339/22/363 146/24/359
f 647/11/685 508/11/687 509/27/689 648/27/686
f 506/29/681 650/28/690 652/26/688 507/38/684
f 505/27/677 648/27/686 706/36/670 643/37/667
f 648/27/686 509/27/689 649/37/679 706/36/670
f 708/36/682 655/37/691 651/33/692 707/35/683
f 645/33/680 707/35/683 650/28/690 506/29/681
f 707/35/683 651/33/692 510/29/693 650/28/690
f 655/37/691 710/36/694 709/35/695 651/33/692
f 650/28/690 510/29/693 511/38/696 652/26/688
f 508/11/687 653/11/697 654/27/698 509/27/689
f 652/26/688 511/38/696 152/24/375 339/22/363
f 508/11/687 148/12/362 340/25/376 653/11/697
f 340/25/376 154/12/378 512/11/699 653/11/697
f 511/38/696 658/26/700 347/22/379 152/24/375
f 653/11/697 512/11/699 513/27/701 654/27/698
f 510/29/693 656/28/702 658/26/700 511/38/696
f 509/27/689 654/27/698 708/36/682 649/37/679
f 654/27/698 513/27/701 655/37/691 708/36/682
f 710/36/694 661/37/703 657/33/704 709/35/695
f 651/33/692 709/35/695 656/28/702 510/29/693
f 709/35/695 657/33/704 514/29/705 656/28/702
f 712/113/706 588/60/528 587/61/527 711/114/707
f 656/28/702 514/29/705 515/38/708 658/26/700
f 512/11/699 659/11/709 660/27/710 513/27/701
f 658/26/700 515/38/708 158/24/391 347/22/379
f 512/11/699 154/12/378 348/25/392 659/11/709
f 348/25/392 160/12/394 516/11/711 659/11/709
f 515/38/708 663/115/712 354/22/395 158/24/391
f 659/11/709 516/11/711 517/27/713 660/27/710
f 514/29/705 662/116/714 663/115/712 515/38/708
f 513/27/701 660/27/710 710/36/694 655/37/691
f 660/27/710 517/27/713 661/37/703 710/36/694
f 409/1/416 2/2/2 1/12/36 410/15/426
f 657/33/704 711/114/707 662/116/714 514/29/705
f 711/114/707 587/61/527 474/106/573 662/116/714
f 661/37/703 712/113/706 711/114/707 657/33/704
f 516/11/711 664/118/715 665/117/716 517/27/713
f 662/116/714 474/106/573 472/102/569 663/115/712
f 663/115/712 472/102/569 98/24/216 354/22/395
f 516/11/711 160/12/394 355/25/401 664/118/715
f 355/25/401 100/12/213 473/101/568 664/118/715
f 106/2/228 358/120/403 666/119/717 477/108/576
f 664/118/715 473/101/568 475/105/572 665/117/716
f 411/11/423 6/12/14 5/20/137 412/19/504
f 517/27/713 665/117/716 712/113/706 661/37/703
f 665/117/716 475/105/572 588/60/528 712/113/706
f 358/120/403 70/2/405 450/48/718 666/119/717
f 104/20/217 476/103/571 668/122/719 362/121/406
f 477/108/576 666/119/717 713/123/720 592/111/579
f 592/111/579 713/123/720 667/124/721 478/110/577
f 713/123/720 555/49/722 448/45/723 667/124/721
f 666/119/717 450/48/718 555/49/722 713/123/720
f 478/110/577 667/124/721 714/125/724 591/109/578
f 591/109/578 714/125/724 668/122/719 476/103/571
f 714/125/724 554/46/725 449/50/726 668/122/719
f 667/124/721 448/45/723 554/46/725 714/125/724
f 668/122/719 449/50/726 66/20/415 362/121/406
f 164/9/11 162/10/12 518/8/419 519/5/418
f 526/30/443 669/31/442 676/32/446 556/58/476
